<svg width="60" height="60" viewBox="0 0 60 60" fill="none" xmlns="http://www.w3.org/2000/svg">
<g opacity="0.75">
<path d="M41.6748 35.575C43.7498 38.15 44.9998 41.425 44.9998 45C49.9998 45 54.9998 45 54.9998 45C54.9998 39.475 50.5248 35 44.9998 35C43.8248 35 42.7248 35.2 41.6748 35.575Z" fill="#225DA1" stroke="#182637" stroke-width="2.50523" stroke-miterlimit="10" stroke-linecap="round" stroke-linejoin="round"/>
<path d="M45 34.9999C47.7615 34.9999 50 32.7614 50 29.9999C50 27.2384 47.7615 24.9999 45 24.9999C42.2385 24.9999 40 27.2384 40 29.9999C40 32.7614 42.2385 34.9999 45 34.9999Z" fill="#225DA1" stroke="#182637" stroke-width="2.50523" stroke-miterlimit="10" stroke-linecap="round" stroke-linejoin="round"/>
<path d="M18.325 35.575C17.275 35.2 16.175 35 15 35C9.475 35 5 39.475 5 45C5 45 10 45 15 45C15 41.425 16.25 38.15 18.325 35.575Z" fill="#225DA1" stroke="#182637" stroke-width="2.50523" stroke-miterlimit="10" stroke-linecap="round" stroke-linejoin="round"/>
<path d="M15 34.9999C17.7614 34.9999 20 32.7614 20 29.9999C20 27.2384 17.7614 24.9999 15 24.9999C12.2386 24.9999 10 27.2384 10 29.9999C10 32.7614 12.2386 34.9999 15 34.9999Z" fill="#225DA1" stroke="#182637" stroke-width="2.50523" stroke-miterlimit="10" stroke-linecap="round" stroke-linejoin="round"/>
<path d="M30 30C21.725 30 15 36.725 15 45C15.025 45 45 45 45 45C45 36.725 38.275 30 30 30Z" fill="#7FB1ED" stroke="#182637" stroke-width="2.50523" stroke-miterlimit="10" stroke-linecap="round" stroke-linejoin="round"/>
<path d="M30 30C34.1423 30 37.5 26.6423 37.5 22.5C37.5 18.3579 34.1423 15 30 15C25.8577 15 22.5 18.3579 22.5 22.5C22.5 26.6423 25.8577 30 30 30Z" fill="#7FB1ED" stroke="#182637" stroke-width="2.50523" stroke-miterlimit="10" stroke-linecap="round" stroke-linejoin="round"/>
</g>
</svg>
