<svg width="60" height="60" viewBox="0 0 60 60" fill="none" xmlns="http://www.w3.org/2000/svg">
<g opacity="0.75">
<path d="M55 12.5001H5V47.5001H55V12.5001Z" fill="#7FB1ED" stroke="#182637" stroke-width="2.50523" stroke-linecap="round" stroke-linejoin="round"/>
<path d="M45 12.5001C45 18.0251 49.475 22.5001 55 22.5001V12.5001H45Z" fill="#225DA1" stroke="#182637" stroke-width="2.50523" stroke-linecap="round" stroke-linejoin="round"/>
<path d="M45 47.5C45 41.975 49.475 37.5 55 37.5V47.5H45Z" fill="#225DA1" stroke="#182637" stroke-width="2.50523" stroke-linecap="round" stroke-linejoin="round"/>
<path d="M15 12.5001C15 18.0251 10.525 22.5001 5 22.5001V12.5001H15Z" fill="#225DA1" stroke="#182637" stroke-width="2.50523" stroke-linecap="round" stroke-linejoin="round"/>
<path d="M15 47.5C15 41.975 10.525 37.5 5 37.5V47.5H15Z" fill="#225DA1" stroke="#182637" stroke-width="2.50523" stroke-linecap="round" stroke-linejoin="round"/>
<path d="M30 40V37.475" stroke="#182637" stroke-width="2.50523" stroke-linecap="round" stroke-linejoin="round"/>
<path d="M30 22.5251V20.0001" stroke="#182637" stroke-width="2.50523" stroke-linecap="round" stroke-linejoin="round"/>
<path d="M35 25.6753C34.575 24.1252 33.2 22.9252 31.45 22.6002C29.7 22.2752 27.875 22.8752 26.85 24.1002C26.725 24.2502 25.575 25.6503 26.125 27.1503C26.475 28.1003 27.3 28.6253 28.45 29.3253C29.7 30.1003 30.05 29.9753 31.95 30.9503C33.875 31.9503 34.2 32.4503 34.35 32.7003C34.9 33.7503 34.525 34.8003 34.45 35.0003C33.925 36.3503 32.475 36.9003 31.95 37.1253C31.725 37.2253 29.625 37.9753 27.55 37.0253C26.4 36.5003 25.8 35.7003 25.6 35.4503C25.275 34.9753 25.1 34.5503 25 34.2253" stroke="#182637" stroke-width="2.50523" stroke-linecap="round" stroke-linejoin="round"/>
</g>
</svg>
