<svg width="60" height="60" viewBox="0 0 60 60" fill="none" xmlns="http://www.w3.org/2000/svg">
<g opacity="0.75" clip-path="url(#clip0)">
<path d="M57.6546 12.3454L57.6546 12.3454C56.1886 10.8793 53.8114 10.8793 52.3454 12.3454L32.5 32.1908L25.1546 24.8454C23.6885 23.3793 21.3115 23.3793 19.8454 24.8454L2.34541 42.3454C2.3454 42.3454 2.34539 42.3454 2.34539 42.3454C0.879287 43.8115 0.879295 46.1886 2.34541 47.6546L2.34542 47.6546C3.81153 49.1206 6.18848 49.1206 7.65458 47.6546L7.65462 47.6546L22.5 32.8092L29.8454 40.1546C31.3114 41.6206 33.6886 41.6206 35.1546 40.1546L57.6546 17.6546L57.6546 17.6546C59.1206 16.1885 59.1206 13.8115 57.6546 12.3454Z" fill="#225DA1" stroke="#182637" stroke-width="2.50836"/>
<path d="M40 11.2458C37.9266 11.2458 36.2458 12.9267 36.2458 15C36.2458 17.0733 37.9266 18.7542 40 18.7542H51.2458V30C51.2458 32.0734 52.9266 33.7542 55 33.7542C57.0734 33.7542 58.7542 32.0734 58.7542 30V15C58.7542 12.9267 57.0734 11.2458 55 11.2458H40Z" fill="#7FB1ED" stroke="#182637" stroke-width="2.50836"/>
</g>
<defs>
<clipPath id="clip0">
<rect width="60" height="60" fill="white"/>
</clipPath>
</defs>
</svg>
