<svg width="60" height="60" viewBox="0 0 60 60" fill="none" xmlns="http://www.w3.org/2000/svg">
<g opacity="0.75">
<path d="M45 28.75C45 36.344 38.2843 42.5 30 42.5C21.7157 42.5 15 36.344 15 28.75C15 21.1561 21.7157 15 30 15C38.2843 15 45 21.1561 45 28.75Z" fill="#7FB1ED" stroke="#182637" stroke-width="2.50523"/>
<path d="M30 2.5V10" stroke="#182637" stroke-width="2.50523"/>
<path d="M38.75 11.25L43.75 6.25" stroke="#182637" stroke-width="2.50523"/>
<path d="M16.25 6.25L21.25 11.25" stroke="#182637" stroke-width="2.50523"/>
<path d="M22.5 53.75C22.5 53.0597 23.0597 52.5 23.75 52.5H36.25C36.9403 52.5 37.5 53.0597 37.5 53.75C37.5 54.4403 36.9403 55 36.25 55H23.75C23.0597 55 22.5 54.4403 22.5 53.75Z" fill="#225DA1" stroke="#182637" stroke-width="2.50523" stroke-linecap="round"/>
<path d="M21.25 50C21.25 48.6193 22.3693 47.5 23.75 47.5H36.25C37.6308 47.5 38.75 48.6193 38.75 50C38.75 51.3808 37.6308 52.5 36.25 52.5H23.75C22.3693 52.5 21.25 51.3808 21.25 50Z" fill="#225DA1" stroke="#182637" stroke-width="2.50523" stroke-linecap="round"/>
<path d="M37.5 42.5H22.5C21.1193 42.5 20 43.6193 20 45C20 46.3807 21.1193 47.5 22.5 47.5H37.5C38.8807 47.5 40 46.3807 40 45C40 43.6193 38.8807 42.5 37.5 42.5Z" fill="#225DA1" stroke="#182637" stroke-width="2.50523" stroke-linecap="round"/>
</g>
</svg>
