<svg width="60" height="60" viewBox="0 0 60 60" fill="none" xmlns="http://www.w3.org/2000/svg">
<g opacity="0.75">
<path fill-rule="evenodd" clip-rule="evenodd" d="M34.6753 12.225L33.9003 6.1C33.8253 5.475 33.3003 5 32.6503 5H24.8753C24.2503 5 23.7003 5.475 23.6253 6.1L22.9503 11.475C22.9003 11.925 22.5753 12.325 22.1503 12.475C20.0503 13.25 18.0503 14.45 16.3253 16L10.6253 13.6C10.0503 13.35 9.37526 13.575 9.05026 14.125L5.15026 20.875C4.85026 21.425 5.00026 22.125 5.50026 22.5L10.4253 26.225C9.90026 28.75 9.90026 31.325 10.4003 33.775H10.4253L5.50026 37.5C5.00026 37.875 4.85026 38.575 5.17526 39.125L9.07526 45.875C9.40026 46.425 10.0753 46.65 10.6503 46.4L16.3503 44L16.3253 44.025C17.2503 44.85 18.3003 45.6 19.4253 46.25C20.5503 46.9 21.7003 47.425 22.9003 47.825V47.775L23.6753 53.9C23.7003 54.525 24.2503 55 24.8753 55H32.6753C33.3003 55 33.8253 54.525 33.9253 53.9L34.6003 48.525C34.6503 48.075 34.9753 47.675 35.4003 47.525C37.5003 46.75 39.5003 45.55 41.2253 44L46.9253 46.4C47.5003 46.65 48.1753 46.425 48.5003 45.875L52.4003 39.125C52.7253 38.575 52.5753 37.875 52.0753 37.5L47.1503 33.775C47.6753 31.25 47.6753 28.675 47.1753 26.225H47.1503L52.0253 22.5C52.5253 22.125 52.6753 21.425 52.3503 20.875L48.4503 14.125C48.1253 13.575 47.4503 13.35 46.8753 13.6L41.2003 16L41.2253 15.975C40.3003 15.15 39.2503 14.4 38.1253 13.75C37.0003 13.1 35.8503 12.575 34.6503 12.175" fill="#7FB1ED"/>
<path d="M34.6753 12.225L33.9003 6.1C33.8253 5.475 33.3003 5 32.6503 5H24.8753C24.2503 5 23.7003 5.475 23.6253 6.1L22.9503 11.475C22.9003 11.925 22.5753 12.325 22.1503 12.475C20.0503 13.25 18.0503 14.45 16.3253 16L10.6253 13.6C10.0503 13.35 9.37526 13.575 9.05026 14.125L5.15026 20.875C4.85026 21.425 5.00026 22.125 5.50026 22.5L10.4253 26.225C9.90026 28.75 9.90026 31.325 10.4003 33.775H10.4253L5.50026 37.5C5.00026 37.875 4.85026 38.575 5.17526 39.125L9.07526 45.875C9.40026 46.425 10.0753 46.65 10.6503 46.4L16.3503 44L16.3253 44.025C17.2503 44.85 18.3003 45.6 19.4253 46.25C20.5503 46.9 21.7003 47.425 22.9003 47.825V47.775L23.6753 53.9C23.7003 54.525 24.2503 55 24.8753 55H32.6753C33.3003 55 33.8253 54.525 33.9253 53.9L34.6003 48.525C34.6503 48.075 34.9753 47.675 35.4003 47.525C37.5003 46.75 39.5003 45.55 41.2253 44L46.9253 46.4C47.5003 46.65 48.1753 46.425 48.5003 45.875L52.4003 39.125C52.7253 38.575 52.5753 37.875 52.0753 37.5L47.1503 33.775C47.6753 31.25 47.6753 28.675 47.1753 26.225H47.1503L52.0253 22.5C52.5253 22.125 52.6753 21.425 52.3503 20.875L48.4503 14.125C48.1253 13.575 47.4503 13.35 46.8753 13.6L41.2003 16L41.2253 15.975C40.3003 15.15 39.2503 14.4 38.1253 13.75C37.0003 13.1 35.8503 12.575 34.6503 12.175" stroke="#182637" stroke-width="2.50523" stroke-miterlimit="10" stroke-linecap="round" stroke-linejoin="round"/>
<path d="M28.7751 40C34.2979 40 38.7751 35.5227 38.7751 30C38.7751 24.4771 34.2979 20 28.7751 20C23.2523 20 18.7751 24.4771 18.7751 30C18.7751 35.5227 23.2523 40 28.7751 40Z" fill="#225DA1" stroke="#182637" stroke-width="2.50523" stroke-miterlimit="10" stroke-linecap="round" stroke-linejoin="round"/>
</g>
</svg>
