<svg width="100" height="100" viewBox="0 0 100 100" fill="none" xmlns="http://www.w3.org/2000/svg">
<rect width="100" height="100" rx="8" fill="#13D3BD" fill-opacity="0.3"/>
<path d="M56.8299 73.1786V73.1739V62.4986C56.8299 61.6294 56.4863 60.7943 55.8724 60.1776C55.2582 59.5606 54.4238 59.2127 53.5523 59.2127H46.4417C45.5702 59.2127 44.7357 59.5606 44.1216 60.1776C43.5077 60.7943 43.1641 61.6294 43.1641 62.4986V73.1817C43.1641 73.2595 43.1333 73.3328 43.0808 73.3859C43.0286 73.4386 42.9593 73.4671 42.8883 73.4676C42.8882 73.4676 42.888 73.4676 42.8878 73.4676L30.4452 73.5C30.4449 73.5 30.4447 73.5 30.4445 73.5C30.3733 73.4998 30.3037 73.4714 30.2513 73.4187C30.1984 73.3656 30.1675 73.2922 30.1675 73.2141V55.6265L50.0014 39.2149L69.8309 55.6145V73.2141C69.8309 73.2922 69.8 73.3656 69.7471 73.4187C69.6947 73.4714 69.6252 73.4998 69.5541 73.5C69.5538 73.5 69.5535 73.5 69.5532 73.5L57.1117 73.4654H57.1075C57.072 73.4654 57.0366 73.4584 57.0034 73.4445C56.9701 73.4306 56.9395 73.4101 56.9134 73.3838C56.8872 73.3575 56.8662 73.3258 56.8517 73.2905C56.8372 73.2552 56.8298 73.2172 56.8299 73.1786ZM70.7197 41.7999V42.5053L71.263 42.9552L80.4369 50.5522L77.8127 53.7572L51.8076 32.2392L51.8015 32.2342L51.7954 32.2292C51.288 31.8184 50.655 31.5936 50.0014 31.5936C49.3478 31.5936 48.7148 31.8184 48.2075 32.2292L48.2013 32.2342L48.1952 32.2393L22.1922 53.7564L19.5631 50.5455L47.563 27.3783C48.2492 26.811 49.1092 26.5016 49.9959 26.5016C50.8825 26.5016 51.7425 26.811 52.4287 27.3783L52.4288 27.3784L62.3759 35.6003L64.8315 37.6301V34.4441V26.5H70.7197V41.7999ZM22.2999 53.888L22.2998 53.8879L22.2999 53.888Z" stroke="white" stroke-width="3"/>
</svg>
