<svg width="46" height="40" viewBox="0 0 46 40" fill="none" xmlns="http://www.w3.org/2000/svg">
<path d="M20.3488 5.43394C21.6338 9.26469 20.3218 13.1312 17.4192 14.0777C14.5166 15.0242 11.1198 12.6847 9.83476 8.85393C8.54971 5.02318 9.86172 1.15671 12.7643 0.210186C15.6669 -0.73634 19.0637 1.60319 20.3488 5.43394ZM9.017 14.8724C10.7154 17.7656 10.302 21.132 8.10039 22.3821C5.89873 23.6322 2.73553 22.3017 1.04609 19.4086C-0.643341 16.5154 -0.247941 13.149 1.95372 11.8989C4.15538 10.6488 7.31857 11.9793 9.00801 14.8724H9.017ZM6.21325 32.9636C10.9221 20.3462 19.2884 17.1405 22.9998 17.1405C26.7111 17.1405 35.0774 20.3462 39.7863 32.9636C40.1098 33.8297 40.2536 34.7584 40.2536 35.6871V35.8299C40.2536 38.1337 38.3754 40 36.057 40C35.0235 40 33.9991 39.875 33.0016 39.625L25.0936 37.6605C23.7187 37.3212 22.2809 37.3212 20.906 37.6605L12.998 39.625C12.0005 39.875 10.976 40 9.94259 40C7.62411 40 5.74596 38.1337 5.74596 35.8299V35.6871C5.74596 34.7584 5.88974 33.8297 6.21325 32.9636ZM37.8992 22.3821C35.6975 21.132 35.2841 17.7656 36.9826 14.8724C38.681 11.9793 41.8352 10.6488 44.0368 11.8989C46.2385 13.149 46.6519 16.5154 44.9535 19.4086C43.255 22.3017 40.1008 23.6322 37.8992 22.3821ZM27.8614 14.0777C24.9588 13.1312 23.6468 9.26469 24.9318 5.43394C26.2169 1.60319 29.6137 -0.73634 32.5163 0.210186C35.4189 1.15671 36.7309 5.02318 35.4459 8.85393C34.1608 12.6847 30.764 15.0242 27.8614 14.0777Z" fill="white"/>
</svg>
