<svg width="100" height="100" viewBox="0 0 100 100" fill="none" xmlns="http://www.w3.org/2000/svg">
<rect width="100" height="100" rx="8" fill="#13D3BD" fill-opacity="0.3"/>
<path d="M47.3488 35.4339C48.6338 39.2647 47.3218 43.1312 44.4192 44.0777C41.5166 45.0242 38.1198 42.6847 36.8348 38.8539C35.5497 35.0232 36.8617 31.1567 39.7643 30.2102C42.6669 29.2637 46.0637 31.6032 47.3488 35.4339ZM36.017 44.8724C37.7154 47.7656 37.302 51.132 35.1004 52.3821C32.8987 53.6322 29.7355 52.3017 28.0461 49.4086C26.3567 46.5154 26.7521 43.149 28.9537 41.8989C31.1554 40.6488 34.3186 41.9793 36.008 44.8724H36.017ZM33.2133 62.9636C37.9221 50.3462 46.2884 47.1405 49.9998 47.1405C53.7111 47.1405 62.0774 50.3462 66.7863 62.9636C67.1098 63.8297 67.2536 64.7584 67.2536 65.6871V65.8299C67.2536 68.1337 65.3754 70 63.057 70C62.0235 70 60.9991 69.875 60.0016 69.625L52.0936 67.6605C50.7187 67.3212 49.2809 67.3212 47.906 67.6605L39.998 69.625C39.0005 69.875 37.976 70 36.9426 70C34.6241 70 32.746 68.1337 32.746 65.8299V65.6871C32.746 64.7584 32.8897 63.8297 33.2133 62.9636ZM64.8992 52.3821C62.6975 51.132 62.2841 47.7656 63.9826 44.8724C65.681 41.9793 68.8352 40.6488 71.0368 41.8989C73.2385 43.149 73.6519 46.5154 71.9535 49.4086C70.255 52.3017 67.1008 53.6322 64.8992 52.3821ZM54.8614 44.0777C51.9588 43.1312 50.6468 39.2647 51.9318 35.4339C53.2169 31.6032 56.6137 29.2637 59.5163 30.2102C62.4189 31.1567 63.7309 35.0232 62.4459 38.8539C61.1608 42.6847 57.764 45.0242 54.8614 44.0777Z" fill="white"/>
</svg>
