<svg width="73" height="61" viewBox="0 0 73 61" fill="none" xmlns="http://www.w3.org/2000/svg">
<mask id="path-1-inside-1_476_7282" fill="white">
<path fill-rule="evenodd" clip-rule="evenodd" d="M64 37.4659V13.3098C64 10.1606 61.3125 7.60563 58 7.60563H47L45.45 3.69586C44.575 1.47359 42.3375 0 39.8375 0H24.15C21.65 0 19.4125 1.47359 18.5375 3.69586L17 7.60563H6C2.6875 7.60563 0 10.1606 0 13.3098V47.5352C0 50.6844 2.6875 53.2394 6 53.2394H49.8812C49.2767 51.8008 48.9414 50.212 48.9414 48.5417C48.9414 42.0557 53.998 36.7977 60.2355 36.7977C61.5555 36.7977 62.8225 37.0332 64 37.4659ZM32 16.162C40.275 16.162 47 22.5554 47 30.4225C47 38.2896 40.275 44.683 32 44.683C23.725 44.683 17 38.2896 17 30.4225C17 22.5554 23.725 16.162 32 16.162ZM32 40.8802C38.0625 40.8802 43 36.1861 43 30.4225C43 24.6589 38.0625 19.9648 32 19.9648C25.9375 19.9648 21 24.6589 21 30.4225C21 36.1861 25.9375 40.8802 32 40.8802Z"/>
</mask>
<path fill-rule="evenodd" clip-rule="evenodd" d="M64 37.4659V13.3098C64 10.1606 61.3125 7.60563 58 7.60563H47L45.45 3.69586C44.575 1.47359 42.3375 0 39.8375 0H24.15C21.65 0 19.4125 1.47359 18.5375 3.69586L17 7.60563H6C2.6875 7.60563 0 10.1606 0 13.3098V47.5352C0 50.6844 2.6875 53.2394 6 53.2394H49.8812C49.2767 51.8008 48.9414 50.212 48.9414 48.5417C48.9414 42.0557 53.998 36.7977 60.2355 36.7977C61.5555 36.7977 62.8225 37.0332 64 37.4659ZM32 16.162C40.275 16.162 47 22.5554 47 30.4225C47 38.2896 40.275 44.683 32 44.683C23.725 44.683 17 38.2896 17 30.4225C17 22.5554 23.725 16.162 32 16.162ZM32 40.8802C38.0625 40.8802 43 36.1861 43 30.4225C43 24.6589 38.0625 19.9648 32 19.9648C25.9375 19.9648 21 24.6589 21 30.4225C21 36.1861 25.9375 40.8802 32 40.8802Z" fill="#024357"/>
<path d="M64 37.4659L63.6551 38.4045L65 38.8988V37.4659H64ZM47 7.60563L46.0704 7.97416L46.3207 8.60563H47V7.60563ZM45.45 3.69586L44.5195 4.06222L44.5204 4.0644L45.45 3.69586ZM18.5375 3.69586L17.607 3.32949L17.6069 3.32989L18.5375 3.69586ZM17 7.60563V8.60563H17.6813L17.9306 7.97159L17 7.60563ZM49.8812 53.2394V54.2394H51.3861L50.8031 52.852L49.8812 53.2394ZM63 13.3098V37.4659H65V13.3098H63ZM58 8.60563C60.8085 8.60563 63 10.76 63 13.3098H65C65 9.56132 61.8166 6.60563 58 6.60563V8.60563ZM47 8.60563H58V6.60563H47V8.60563ZM44.5204 4.0644L46.0704 7.97416L47.9296 7.23709L46.3796 3.32732L44.5204 4.0644ZM39.8375 1C41.9519 1 43.8041 2.24527 44.5195 4.06222L46.3805 3.32949C45.3459 0.701914 42.7231 -1 39.8375 -1V1ZM24.15 1H39.8375V-1H24.15V1ZM19.468 4.06222C20.1834 2.24527 22.0356 1 24.15 1V-1C21.2644 -1 18.6416 0.701914 17.607 3.32949L19.468 4.06222ZM17.9306 7.97159L19.4681 4.06182L17.6069 3.32989L16.0694 7.23966L17.9306 7.97159ZM6 8.60563H17V6.60563H6V8.60563ZM1 13.3098C1 10.76 3.19155 8.60563 6 8.60563V6.60563C2.18345 6.60563 -1 9.56132 -1 13.3098H1ZM1 47.5352V13.3098H-1V47.5352H1ZM6 52.2394C3.19155 52.2394 1 50.085 1 47.5352H-1C-1 51.2837 2.18345 54.2394 6 54.2394V52.2394ZM49.8812 52.2394H6V54.2394H49.8812V52.2394ZM50.8031 52.852C50.2495 51.5345 49.9414 50.0773 49.9414 48.5417H47.9414C47.9414 50.3467 48.3039 52.0671 48.9593 53.6268L50.8031 52.852ZM49.9414 48.5417C49.9414 42.5708 54.5867 37.7977 60.2355 37.7977V35.7977C53.4092 35.7977 47.9414 41.5406 47.9414 48.5417H49.9414ZM60.2355 37.7977C61.4356 37.7977 62.586 38.0117 63.6551 38.4045L64.345 36.5273C63.0591 36.0547 61.6753 35.7977 60.2355 35.7977V37.7977ZM48 30.4225C48 21.9561 40.7791 15.162 32 15.162V17.162C39.771 17.162 46 23.1548 46 30.4225H48ZM32 45.683C40.7791 45.683 48 38.8889 48 30.4225H46C46 37.6903 39.771 43.683 32 43.683V45.683ZM16 30.4225C16 38.8889 23.221 45.683 32 45.683V43.683C24.229 43.683 18 37.6903 18 30.4225H16ZM32 15.162C23.221 15.162 16 21.9561 16 30.4225H18C18 23.1548 24.229 17.162 32 17.162V15.162ZM42 30.4225C42 35.5868 37.5585 39.8802 32 39.8802V41.8802C38.5666 41.8802 44 36.7855 44 30.4225H42ZM32 20.9648C37.5585 20.9648 42 25.2582 42 30.4225H44C44 24.0595 38.5666 18.9648 32 18.9648V20.9648ZM22 30.4225C22 25.2582 26.4415 20.9648 32 20.9648V18.9648C25.4335 18.9648 20 24.0595 20 30.4225H22ZM32 39.8802C26.4415 39.8802 22 35.5868 22 30.4225H20C20 36.7855 25.4335 41.8802 32 41.8802V39.8802Z" fill="white" mask="url(#path-1-inside-1_476_7282)"/>
<path d="M72.302 48.1505C72.302 54.5664 66.9844 59.7859 60.402 59.7859C53.8195 59.7859 48.502 54.5664 48.502 48.1505C48.502 41.7345 53.8195 36.515 60.402 36.515C66.9844 36.515 72.302 41.7345 72.302 48.1505Z" fill="#024357" stroke="white"/>
<path d="M55.2043 49.0293L54.5942 48.4474C54.3358 48.201 54.3358 47.8026 54.5942 47.5588L59.9345 42.4634C60.1929 42.217 60.6107 42.217 60.8663 42.4634L66.2066 47.5562C66.465 47.8026 66.465 48.201 66.2066 48.4448L65.5964 49.0267C65.3353 49.2757 64.9093 49.2704 64.6537 49.0162L61.5012 45.8603V53.3935C61.5012 53.7421 61.2071 54.0225 60.8415 54.0225H59.962C59.5965 54.0225 59.3024 53.7421 59.3024 53.3935V45.8603L56.1471 49.0188C55.8915 49.2757 55.4654 49.2809 55.2043 49.0293Z" fill="white"/>
</svg>
