<svg width="56" height="53" viewBox="0 0 56 53" fill="none" xmlns="http://www.w3.org/2000/svg">
<path d="M31.7833 17.6667C29.5761 17.6667 20.0998 17.8853 14 27.157V17.6667C14 11.8212 9.29031 7.06667 3.5 7.06667C1.56734 7.06667 0 8.64894 0 10.6C0 12.5511 1.56734 14.1333 3.5 14.1333C5.42937 14.1333 7 15.7189 7 17.6667V45.9333C7 49.831 10.1391 53 14 53H33.25C34.2169 53 35 52.2094 35 51.2333V49.4667C35 47.5156 33.4327 45.9333 31.5 45.9333H28L42 35.3333V51.2333C42 52.2094 42.7831 53 43.75 53H47.25C48.2169 53 49 52.2094 49 51.2333V28.472C47.8745 28.7669 46.7152 28.9733 45.5 28.9733C38.7395 28.9733 33.0837 24.1095 31.7833 17.6667ZM49 7.06667H42L35 0V14.84C35 20.6943 39.7009 25.44 45.5 25.44C51.2991 25.44 56 20.6943 56 14.84V0L49 7.06667ZM41.125 15.9C40.1581 15.9 39.375 15.1094 39.375 14.1333C39.375 13.1572 40.1581 12.3667 41.125 12.3667C42.0919 12.3667 42.875 13.1572 42.875 14.1333C42.875 15.1094 42.0919 15.9 41.125 15.9ZM49.875 15.9C48.9081 15.9 48.125 15.1094 48.125 14.1333C48.125 13.1572 48.9081 12.3667 49.875 12.3667C50.8419 12.3667 51.625 13.1572 51.625 14.1333C51.625 15.1094 50.8419 15.9 49.875 15.9Z" fill="white"/>
</svg>
