<svg width="100" height="100" viewBox="0 0 100 100" fill="none" xmlns="http://www.w3.org/2000/svg">
<rect width="100" height="100" rx="8" fill="#13D3BD" fill-opacity="0.3"/>
<path d="M77.7537 48.4375L72.4578 39.3973C72.5711 39.1742 72.6561 38.9231 72.6561 38.644C72.6561 37.8069 71.9481 37.1093 71.0985 37.0814L65.2362 27.0926C65.2928 26.9252 65.3494 26.7578 65.3494 26.5904C65.3494 25.6976 64.6131 25 63.7351 25C63.2254 25 62.8006 25.2232 62.489 25.5859H51.2177C50.9345 25.2233 50.5097 25.0001 49.9999 25.0001C49.4902 25.0001 49.0654 25.2233 48.7822 25.586H37.5674C37.2559 25.2233 36.8311 25.0001 36.3213 25.0001C35.4435 25.0001 34.7071 25.6976 34.7071 26.5905C34.7071 26.7579 34.7637 26.9532 34.8204 27.0927L28.9014 37.2211C28.3351 37.4721 27.9385 38.0023 27.9385 38.6441C27.9385 38.6998 27.9669 38.7557 27.9669 38.8115L22.3311 48.4097C21.5665 48.5492 21 49.1909 21 49.9722C21 50.7255 21.5381 51.3673 22.2745 51.5347L28.1084 61.4678C28.0518 61.6352 28.0234 61.7746 28.0234 61.9699C28.0234 62.7233 28.5615 63.3651 29.2979 63.5045L34.7637 72.8516C34.7071 73.019 34.6505 73.2143 34.6505 73.4096C34.6505 74.3024 35.3868 75 36.2648 75C36.7745 75 37.1993 74.7768 37.4825 74.442H48.7823C49.0654 74.7767 49.5186 74.9999 49.9999 74.9999C50.4813 74.9999 50.9345 74.7767 51.2177 74.4419H62.5458C62.8289 74.7488 63.2537 74.9441 63.7069 74.9441C64.6131 74.9441 65.3212 74.2187 65.3212 73.3537C65.3212 73.1863 65.2929 73.0468 65.2363 72.9073L70.7021 63.5044C71.4384 63.3649 71.9766 62.7232 71.9766 61.9698C71.9766 61.8025 71.9482 61.6351 71.8916 61.4677L77.6972 51.5346C78.4335 51.3951 79 50.7533 79 49.9721C78.9998 49.2188 78.4616 48.577 77.7537 48.4375ZM35.7832 70.2845L31.1671 62.3884H35.7832V70.2845ZM35.7832 61.5513H31.1671C31.1387 61.4397 31.0821 61.3282 31.0255 61.2165L35.7832 56.278V61.5513ZM35.7832 55.0502L30.459 60.6027C30.3174 60.5468 30.1758 60.4631 30.0342 60.4353L24.1437 50.3906C24.2003 50.2511 24.2003 50.1116 24.2003 49.9721C24.2003 49.8326 24.2003 49.721 24.172 49.6094L29.6661 40.2344C29.9494 40.2065 30.2325 40.1228 30.4874 39.9554L35.7833 45.3684V55.0502H35.7832ZM35.7832 44.3917L30.9405 39.4532C31.0821 39.2299 31.1671 38.951 31.1671 38.6441C31.1671 38.6162 31.1387 38.5604 31.1387 38.5324L35.7832 36.8862V44.3917ZM35.7832 35.9933L31.1671 37.6395L35.7832 29.7712V35.9933ZM70.3055 40.067L70.3905 40.2065L66.6522 57.6172L59.912 50.6139L70.2772 40.0391L70.3055 40.067ZM50.3964 60.3236L51.6142 61.5513H49.207L50.3964 60.3236ZM50.3681 59.1517L41.5606 50.2511L49.9716 41.4621L58.7509 50.5859L50.3681 59.1517ZM50.9345 59.7656L59.3173 51.1998L66.4539 58.6216L65.831 61.5513H52.7186L50.9345 59.7656ZM62.9423 27.9577C63.0555 28.0135 63.1687 28.0694 63.3104 28.0973L69.4276 38.5883V38.6441C69.4276 38.951 69.5125 39.2299 69.6541 39.4532L59.3456 50L50.5664 40.8762L62.9423 27.9577ZM61.9794 27.7345L49.9716 40.2623L43.9394 33.9844L61.5261 27.7345H61.9794ZM48.9237 27.7345C49.2069 28.0134 49.575 28.1808 49.9999 28.1808C50.4249 28.1808 50.7929 28.0134 51.0762 27.7345H59.0058L43.3164 33.3148L37.9356 27.7345H48.9237ZM36.6329 28.3204L36.7461 28.0973C36.8417 28.0732 36.9362 28.0453 37.0294 28.0135L42.4386 33.6218L36.6329 35.6865V28.3204ZM36.6329 36.5793L43.0615 34.2914L49.3769 40.8762L40.9659 49.6373L36.6329 45.2568V36.5793ZM36.6329 46.2332L40.4844 50.1674L36.6329 54.1574V46.2332ZM36.6329 55.3851L41.0791 50.7534L49.83 59.7099L48.0175 61.5513H36.6329V55.3851ZM37.3692 72.2655C37.1993 72.0981 37.0011 71.9866 36.7461 71.9028L36.6329 71.7354V62.3884H47.1962L37.5108 72.2655H37.3692ZM51.1045 72.2655C50.8212 72.0145 50.4249 71.8192 49.9999 71.8192C49.575 71.8192 49.1788 72.0145 48.8954 72.2655H38.7001L48.3856 62.3884H52.4354L62.1209 72.2655H51.1045ZM63.7919 71.0378L63.3388 71.8191C63.1972 71.847 63.084 71.9027 62.9706 71.9586L53.5401 62.3883H65.6329L63.7919 71.0378ZM65.1512 68.722L66.5106 62.3884H68.8328L65.1512 68.722ZM68.8328 61.5513H66.6805L67.1619 59.3471L68.9744 61.2444C68.9178 61.3281 68.8612 61.4396 68.8328 61.5513ZM75.8279 50.3627L69.9656 60.4353C69.824 60.491 69.6824 60.5468 69.5408 60.6305L67.3601 58.3426L71.0135 41.2668L75.8562 49.5257C75.8279 49.6652 75.7713 49.8047 75.7713 49.9721C75.7713 50.1116 75.7996 50.2232 75.8279 50.3627Z" fill="white"/>
</svg>
