<svg width="106" height="109" viewBox="0 0 106 109" fill="none" xmlns="http://www.w3.org/2000/svg">
<path d="M77 32.155V47.7325C77 49.7983 77.8429 51.7794 79.3431 53.24C80.8434 54.7007 82.8783 55.5213 85 55.5213H89C93.2435 55.5213 97.3131 53.8801 100.314 50.9588C103.314 48.0374 105 44.0752 105 39.9438V16.5775C105 14.5118 104.157 12.5307 102.657 11.07C101.157 9.60936 99.1217 8.78876 97 8.78876H85C82.4683 8.78639 79.9732 8.19912 77.72 7.07523C70.082 3.1944 61.6148 1.1135 53 1C44.331 1.08909 35.8062 3.17069 28.12 7.07523C25.908 8.15735 23.475 8.74288 21 8.78876H9C6.87827 8.78876 4.84344 9.60936 3.34315 11.07C1.84285 12.5307 1 14.5118 1 16.5775V39.9438C1 44.0752 2.68571 48.0374 5.68629 50.9588C8.68687 53.8801 12.7565 55.5213 17 55.5213H21C23.1217 55.5213 25.1566 54.7007 26.6569 53.24C28.1571 51.7794 29 49.7983 29 47.7325V32.155" stroke="black" stroke-width="2" stroke-linecap="round" stroke-linejoin="round"/>
<path d="M89.0039 55.5212L86.5239 67.7496C84.9985 75.3137 80.8216 82.127 74.7074 87.0246C68.5932 91.9222 60.9215 94.5999 53.0039 94.5999C45.0863 94.5999 37.4146 91.9222 31.3004 87.0246C25.1862 82.127 21.0093 75.3137 19.4839 67.7496L17.0039 55.5212" stroke="black" stroke-width="2" stroke-linecap="round" stroke-linejoin="round"/>
<path d="M48.9922 71.0986H56.9922" stroke="black" stroke-width="2" stroke-linecap="round" stroke-linejoin="round"/>
<path d="M81.25 107.5C90.2246 107.5 97.5 100.225 97.5 91.25C97.5 82.2754 90.2246 75 81.25 75C72.2754 75 65 82.2754 65 91.25C65 100.225 72.2754 107.5 81.25 107.5Z" fill="white" stroke="black" stroke-width="1.8" stroke-linecap="round" stroke-linejoin="round"/>
<path d="M77.5 87.5C77.5 86.7583 77.7199 86.0333 78.132 85.4166C78.544 84.7999 79.1297 84.3193 79.8149 84.0355C80.5002 83.7516 81.2542 83.6774 81.9816 83.8221C82.709 83.9668 83.3772 84.3239 83.9017 84.8484C84.4261 85.3728 84.7833 86.041 84.9279 86.7684C85.0726 87.4958 84.9984 88.2498 84.7145 88.9351C84.4307 89.6203 83.9501 90.206 83.3334 90.618C82.7167 91.0301 81.9917 91.25 81.25 91.25V93.75" stroke="black" stroke-width="1.8" stroke-linecap="round" stroke-linejoin="round"/>
<path d="M81.25 97.5C80.8792 97.5 80.5166 97.61 80.2083 97.816C79.9 98.022 79.6596 98.3149 79.5177 98.6575C79.3758 99.0001 79.3387 99.3771 79.411 99.7408C79.4834 100.105 79.662 100.439 79.9242 100.701C80.1864 100.963 80.5205 101.142 80.8842 101.214C81.2479 101.286 81.6249 101.249 81.9675 101.107C82.3101 100.965 82.603 100.725 82.809 100.417C83.015 100.108 83.125 99.7458 83.125 99.375C83.1185 98.8797 82.9189 98.4066 82.5687 98.0563C82.2184 97.7061 81.7453 97.5065 81.25 97.5Z" fill="black"/>
</svg>
