<svg width="70" height="58" viewBox="0 0 70 58" fill="none" xmlns="http://www.w3.org/2000/svg">
<path d="M67.8125 7.73318H59.0625L58.0836 6.00405C57.7203 5.36179 57.1618 4.82163 56.4707 4.44409C55.7796 4.06655 54.9832 3.86655 54.1707 3.86651H46.8398L43.1102 0.570163C41.7307 -0.64784 39.375 0.214912 39.375 1.93679V20.0425L56.875 25.5658V21.2666H61.25C66.083 21.2666 70 17.8047 70 13.5332V9.66652C70 8.59835 69.0211 7.73318 67.8125 7.73318ZM52.5 13.5332C51.2914 13.5332 50.3125 12.668 50.3125 11.5999C50.3125 10.5317 51.2914 9.66652 52.5 9.66652C53.7086 9.66652 54.6875 10.5317 54.6875 11.5999C54.6875 12.668 53.7086 13.5332 52.5 13.5332ZM13.125 23.1999C10.7133 23.1999 8.75 21.4647 8.75 19.3332C8.75 17.1981 6.79082 15.4665 4.375 15.4665C1.95918 15.4665 0 17.1981 0 19.3332C0 24.3672 3.66816 28.6193 8.75 30.2203V56.0667C8.75 57.1348 9.72891 58 10.9375 58H19.6875C20.8961 58 21.875 57.1348 21.875 56.0667V42.5333H43.75V56.0667C43.75 57.1348 44.7289 58 45.9375 58H54.6875C55.8961 58 56.875 57.1348 56.875 56.0667V29.6705L36.374 23.1999H13.125Z" fill="white"/>
</svg>
