<?xml version="1.0" standalone="yes"?><svg xmlns="http://www.w3.org/2000/svg" width="1440" height="960" viewBox="0 0 1440 960" fill="none" style="zoom: 0.5;"><g clip-path="url(#clip0)"><rect width="1440" height="960" fill="white"></rect><rect y="0px" fill="url(#paint0_linear)" height="960" x="0px" width="1440"></rect><path d="M0,439.5 V218.5 C77.5,312 241,252.5 555,137 C401.667,234.333 244,478 0,439.5 " fill="url(#paint1_linear)"></path><path d="M0.388596 155.158C0.712341 153.868 0.340378 153.955 -1.52588e-05 154.046V205.231L1.02806 206.062C1.63135 205.271 1.42644 205.057 1.85007 204.392C2.29283 204.402 2.73067 204.487 3.14445 204.645C3.49878 204.785 3.82738 204.983 4.11685 205.231C4.69775 205.716 5.11566 206.316 5.51173 206.852C4.32352 207.99 3.90274 205.4 2.73921 206.463C3.03943 207.357 3.52792 208.21 4.1358 208.993C4.76378 209.791 5.57658 210.569 6.43532 211.248C7.36194 211.97 8.34691 212.613 9.38004 213.171C10.4199 213.739 11.5014 214.227 12.6152 214.631C12.9389 214.126 12.5504 214.017 12.4413 213.772C13.1416 213.989 13.8352 214.228 14.521 214.488C14.8745 214.621 15.2299 214.76 15.5863 214.905C15.8962 215.034 16.2089 215.164 16.5249 215.296L16.6907 215.366C17.4639 215.698 18.2309 216.045 18.9914 216.406L20.1894 216.98L21.4275 217.59C23.0457 218.411 24.8728 219.34 26.6563 220.298C28.5511 221.272 30.4333 222.294 32.4504 223.321C36.433 225.373 40.532 227.382 44.6219 229.2C48.7095 231.019 52.7885 232.646 56.6884 233.976C57.3473 233.708 58.3777 233.677 59.5774 233.79C60.7823 233.888 62.1484 234.158 63.4916 234.48C66.1706 235.142 68.7439 236.082 69.5171 236.978C72.2049 236.924 75.259 237.15 78.5776 237.395L78.8472 237.415L84.1735 237.833L84.3843 237.849C85.2418 237.913 86.1112 237.978 87.0109 238.032L88.466 238.125L89.9602 238.199C93.9605 238.392 98.2398 238.441 102.593 238.138C106.949 237.833 111.378 237.167 115.513 236.04C116.485 235.768 117.399 235.535 118.311 235.27L120.933 234.517C122.64 233.994 124.218 233.503 125.731 232.934C127.228 232.396 128.663 231.761 130.003 231.098C131.359 230.393 132.652 229.624 133.854 228.728C132.97 228.969 132.055 229.192 131.135 229.436L129.74 229.8L128.342 230.137C127.403 230.364 126.449 230.601 125.498 230.804C124.546 231.012 123.57 231.246 122.609 231.431C118.723 232.242 114.806 232.891 110.867 233.377C103.054 234.338 95.5144 234.55 89.0423 234.171C88.993 231.806 90.955 233.582 91.8906 233.215C92.3148 231.583 90.0233 233.475 90.4648 231.838C93.4169 231.39 97.3518 231.211 101.492 230.972C105.621 230.748 109.964 230.437 113.46 230.07C112.88 227.913 111.962 230.471 111.135 228.439C107.835 229.496 104.39 229.985 101.024 230.1C97.6521 230.217 94.3555 229.961 91.2334 229.567C88.1107 229.172 85.1499 228.65 82.3923 228.205C80.9998 228.001 79.6457 227.775 78.3122 227.64C77.0193 227.482 75.7196 227.385 74.4175 227.349C77.5396 226.943 80.6312 226.825 83.7522 226.795C86.8714 226.783 90.0945 226.9 93.4531 226.986C96.8111 227.07 100.308 227.118 103.935 226.94C107.558 226.762 111.313 226.354 115.099 225.529C120.737 224.318 126.744 222.028 132.288 219.054C137.808 216.133 142.634 212.632 146.912 209.412C147.79 208.754 149.637 208.575 150.428 207.75C151.222 206.88 150.872 205.146 151.685 204.489C151.994 204.239 153.196 205.629 153.159 205.679C153.618 205.133 152.196 204.382 152.338 203.965C152.629 203.061 153.602 202.41 154.58 201.666L154.632 201.627C155.556 200.921 156.517 200.186 156.903 199.208C156.716 199.57 156.543 198.995 156.515 198.267C156.486 197.478 156.615 196.52 157.128 196.346C156.207 195.972 154.364 197.663 155.965 195.756C155.28 196.157 154.218 196.735 153.473 197.45C152.726 198.163 152.316 199.066 152.98 200.228C152.558 200.466 151.99 199.598 151.473 199.089C150.517 200.363 149.573 201.493 148.547 202.464L148.52 202.489C148.019 202.969 147.521 203.444 146.988 203.873C146.444 204.316 145.889 204.746 145.324 205.162C143.012 206.813 140.389 208.354 136.876 210.16C139.435 207.386 141.972 205.692 144.406 203.931C145.006 203.483 145.598 203.037 146.177 202.578C146.755 202.117 147.299 201.615 147.83 201.098C148.095 200.838 148.353 200.57 148.604 200.295C148.849 200.01 149.086 199.715 149.314 199.41C149.769 198.797 150.2 198.155 150.562 197.429C149.1 197.222 148.049 197.403 147.119 197.501C146.193 197.601 145.349 197.557 144.372 196.887C145.024 198.008 145.556 198.039 146.157 198.629C145.58 199.022 145.031 199.453 144.511 199.92C144.083 200.289 143.758 200.616 143.455 200.901C143.152 201.186 142.872 201.43 142.533 201.628C142.193 201.823 141.787 201.963 141.248 202.057C140.307 200.825 140.701 200.819 141.21 200.892C141.722 200.969 142.348 201.11 141.826 200.221C141.008 199.622 140.087 200.176 139.244 200.983C138.401 201.783 137.581 202.78 137.112 203.087C138.256 203.93 138.723 203.301 139.088 202.711C139.462 202.127 139.72 201.544 140.613 202.456C141.007 203.503 139.775 203.086 140.297 202.654C139.772 203.067 139.042 204.041 138.146 204.917C137.246 205.778 136.138 206.472 134.982 206.282C134.038 206.564 134.986 205.112 133.901 204.068C132.644 204.971 131.419 205.645 130.222 206.137C129.04 206.66 127.889 207.003 126.814 207.383C125.738 207.76 124.705 208.103 123.732 208.633C123.233 208.885 122.754 209.176 122.301 209.504C121.809 209.866 121.344 210.263 120.908 210.691C119.613 210.809 120.556 209.063 119.774 209.057C118.9 209.127 118.1 209.222 117.577 209.642C117.054 210.063 116.8 210.808 117.045 212.136C116.526 211.089 115.524 210.287 114.661 210.153C113.795 210.026 113.056 210.513 112.993 212.127C111.298 210.21 109.075 211.018 106.672 211.736C104.287 212.464 101.761 213.032 100.16 210.873C99.3339 210.937 99.9969 212.955 100.092 213.337C99.4292 213.226 98.7077 213.037 97.9414 212.824C97.14 212.582 96.3322 212.36 95.519 212.161C93.8222 211.748 91.9566 211.511 89.8919 211.918C89.4797 211.674 89.8219 210.353 89.885 209.431C88.9207 209.249 88.2927 209.975 87.5206 210.353C87.6423 212.261 88.6997 209.841 89.4091 210.619C89.0923 212.507 87.6865 211.434 86.7107 211.474C86.3043 211.188 86.849 210.399 87.2078 210.307C86.551 209.769 85.7925 209.369 84.9777 209.131C84.2062 208.898 83.4112 208.773 82.5875 208.697L82.4305 208.684C81.6553 208.616 80.8648 208.548 80.0572 208.443C79.1945 208.336 78.322 208.146 77.4512 207.811L76.8961 210.212C76.1693 210.05 75.4451 209.875 74.724 209.689C75.2085 208.863 75.9277 209.08 76.5569 208.871C76.1826 208.11 75.5535 207.676 74.7665 207.415C74.3733 207.283 73.9405 207.194 73.4836 207.118C73.0289 207.035 72.5491 206.97 72.0589 206.898C71.0773 206.762 70.0601 206.578 69.1348 206.184C68.2072 205.801 67.3794 205.184 66.7882 204.2C64.1139 207.245 61.7891 205.947 58.6297 204.545C56.8192 203.731 57.2561 202.254 56.1499 202.208C55.7722 202.191 55.2057 201.827 54.5243 201.304C53.847 200.771 53.0497 200.095 52.1972 199.461C51.3506 198.812 50.4361 198.233 49.5126 197.879C48.5901 197.524 47.6389 197.431 46.6999 197.781C45.9829 196.802 45.0702 195.881 44.0858 194.942C43.5724 194.463 43.0428 194.001 42.498 193.558C41.9389 193.102 41.3827 192.638 40.7852 192.183C39.5814 191.273 38.3525 190.355 37.038 189.44L35.0766 188.059L33.0801 186.669C30.3983 184.806 27.7234 182.914 25.2758 180.982C24.0422 180.005 22.8896 179.043 21.7932 178.034C20.7408 177.077 19.7461 176.058 18.814 174.983C18.1757 174.238 17.7561 173.305 17.2527 172.564C16.7476 171.822 16.146 171.222 15.1747 171.214C14.3482 171.205 14.975 168.337 14.5009 167.927C14.0726 167.56 13.1766 167.815 12.3718 167.855C11.5642 167.884 10.8501 167.74 10.7227 166.499C11.1428 165.531 11.4488 165.567 11.7502 165.65C11.7421 164.997 11.2703 163.982 10.2899 166.263C10.1728 165.735 9.95923 165.392 9.7101 165.149C9.4604 164.91 9.1774 164.757 8.91966 164.58C8.40419 164.228 7.9955 163.785 8.11604 162.368C7.41574 162.316 6.73611 161.954 6.05074 161.417C5.7198 161.159 5.39154 160.852 5.05258 160.535L5.01463 160.5C4.64702 160.165 4.28587 159.823 3.93144 159.474L0.388596 155.158Z" fill="url(#paint2_linear)"></path><path d="M1452.44,745.481 C1491.72,642.136 1674.24,562.055 2000,505.241 C1723.49,345.08 1540.97,265 1452.44,265 C1319.65,265 1212,372.559 1212,505.241 C1212,637.922 1393.52,900.498 1452.44,745.481 " fill-rule="evenodd" fill="url(#paint3_linear)" clip-rule="evenodd"></path><path fill-rule="evenodd" clip-rule="evenodd" d="M1303.83 922.998C1302.82 923.425 1301.68 923.807 1300.46 924.128C1299.18 924.444 1297.88 924.704 1296.57 924.907C1293.89 925.358 1291.04 925.517 1288.48 925.617C1285.87 925.675 1283.55 925.627 1281.82 925.498C1281.51 924.13 1282.34 924.192 1283.05 924.096C1283.75 923.993 1284.32 923.734 1283.5 921.758C1284.87 922.618 1285.03 926.317 1287.49 924.725C1287.45 922.215 1286.16 922.669 1285.05 922.716C1286.13 920.479 1287.6 921.35 1289.09 922.161C1290.46 922.914 1291.9 923.632 1293.03 921.942C1293.1 921.789 1293.2 921.622 1293.32 921.431C1293.23 921.625 1293.13 921.79 1293.03 921.942C1292.27 923.458 1294.02 923.22 1296.81 922.432C1299.89 921.596 1304.18 920.087 1307.86 919.737C1307.32 921.069 1305.85 922.148 1303.83 922.998H1303.83ZM1220.27 888.782C1219.77 889.309 1217.94 889.266 1216.49 887.093C1215.65 887.832 1214.58 887.891 1213.36 887.478C1213.74 886.601 1214.37 886.546 1214.67 885.414C1214.13 885.05 1213.89 885.675 1213.67 886.354C1211.91 882.749 1217.23 884.421 1216.49 887.093C1220.04 887.182 1220.78 888.251 1220.27 888.782ZM1209.95 891.375C1211.24 889.232 1215.35 891.586 1215.84 892.924C1213.7 894.488 1212.93 892.352 1209.95 891.375ZM1658.44 750.238C1657.96 745.878 1657.15 741.561 1656.02 737.324C1655.8 736.493 1655.56 735.665 1655.32 734.84C1654.82 733.202 1654.27 731.49 1653.68 729.918C1653.08 728.301 1652.44 726.701 1651.76 725.119C1651.06 723.501 1650.33 722.005 1649.53 720.444C1647.95 717.318 1646.17 714.363 1644.17 711.387C1639.95 705.215 1634.96 699.602 1629.34 694.681C1627.54 693.1 1625.63 691.628 1623.69 690.234L1622.96 689.717L1622.29 689.264L1620.96 688.399C1620.07 687.834 1619.17 687.288 1618.26 686.76C1614.78 684.761 1611.12 683.086 1607.33 681.757C1600.02 679.199 1592.88 678.139 1586.27 678.013C1579.65 677.887 1573.55 678.681 1568 679.822C1562.45 680.967 1557.44 682.458 1552.89 683.794C1551.73 684.148 1550.58 684.549 1549.46 684.996C1548.38 685.456 1547.29 685.948 1546.24 686.484C1544.18 687.599 1542.17 688.821 1540.22 690.145C1536.32 692.762 1532.59 695.906 1529.12 699.023C1522.15 705.305 1516.15 711.835 1510.84 715.815C1510.24 716.26 1509.57 714.014 1508.39 714.632C1505.38 716.268 1502.19 720.076 1499.27 724.001C1496.33 727.992 1493.67 731.996 1491.38 734.008C1488.7 733.554 1487.35 736.546 1486.11 738.854C1484.85 741.145 1483.7 742.828 1481.09 739.744C1480.12 741.68 1479.03 743.557 1477.83 745.364C1476.69 747.09 1475.51 748.723 1474.29 750.196C1473.07 751.68 1471.81 753.008 1470.54 754.273C1469.3 755.52 1468.01 756.705 1466.66 757.824C1466 758.367 1465.35 758.888 1464.68 759.386C1464.03 759.89 1463.37 760.412 1462.72 760.895C1461.44 761.842 1460.13 762.751 1458.8 763.619C1457.5 764.449 1456.24 765.346 1455 766.139L1451.4 768.478C1451.6 771.427 1454.07 773.565 1453.06 774.057C1451.59 775.195 1450.7 770.482 1449.19 771.63C1449.34 774.365 1451.72 775.419 1450.6 776.073C1449.95 774.831 1449.3 773.719 1448.59 773.044C1449.02 775.016 1450.2 775.667 1449.66 776.374C1449.19 776.518 1449.4 777.451 1449.09 777.778C1448.22 777.306 1447.62 773.546 1446.68 773.656C1447.46 776.075 1446.86 775.86 1446.22 775.683C1445.57 775.509 1444.87 775.346 1445.48 777.783C1446.25 777.436 1446.96 778.197 1447.61 779.477C1444.57 780.405 1441.53 783.182 1438.8 785.94C1438.14 786.599 1437.46 787.245 1436.76 787.878C1436.1 788.5 1435.46 789.105 1434.81 789.61C1433.52 790.627 1432.24 791.31 1430.92 791.408C1431.14 794.085 1430.37 794.923 1429.4 795.589C1428.92 795.922 1428.38 796.212 1427.91 796.664C1427.44 797.122 1427.04 797.771 1426.82 798.768C1424.97 794.457 1424.08 796.376 1424.06 797.611C1424.63 797.453 1425.21 797.386 1426 799.215C1425.76 801.56 1424.42 801.832 1422.89 801.777C1421.38 801.701 1419.69 801.219 1418.88 801.913C1417.99 802.688 1419.17 808.108 1417.61 808.124C1415.78 808.14 1414.64 809.274 1413.69 810.676C1412.74 812.077 1411.95 813.839 1410.75 815.246C1408.99 817.278 1407.12 819.203 1405.13 821.012C1403.07 822.919 1400.89 824.737 1398.57 826.583C1393.95 830.233 1388.91 833.81 1383.85 837.329L1380.09 839.957L1376.39 842.566C1373.91 844.295 1371.6 846.03 1369.33 847.749C1368.2 848.609 1367.15 849.487 1366.1 850.349C1365.07 851.186 1364.07 852.057 1363.11 852.962C1361.25 854.738 1359.53 856.478 1358.18 858.329C1356.41 857.666 1354.61 857.842 1352.88 858.513C1351.13 859.182 1349.41 860.276 1347.81 861.503C1346.21 862.702 1344.7 863.979 1343.43 864.986C1342.14 865.973 1341.08 866.663 1340.36 866.694C1338.28 866.781 1339.1 869.573 1335.69 871.109C1329.73 873.76 1325.35 876.213 1320.31 870.458C1319.19 872.318 1317.63 873.483 1315.88 874.207C1314.14 874.951 1312.22 875.3 1310.37 875.557C1309.45 875.693 1308.54 875.815 1307.69 875.972C1306.82 876.115 1306.01 876.285 1305.27 876.534C1303.78 877.027 1302.6 877.847 1301.89 879.285C1303.08 879.68 1304.43 879.27 1305.35 880.831C1303.99 881.183 1302.62 881.512 1301.25 881.819L1300.21 877.281C1298.56 877.914 1296.92 878.274 1295.29 878.477C1293.67 878.688 1292.08 878.821 1290.52 878.957C1288.97 879.1 1287.47 879.337 1286.02 879.777C1284.48 880.227 1283.05 880.982 1281.81 881.999C1282.49 882.173 1283.52 883.664 1282.75 884.204C1280.91 884.128 1278.26 886.156 1277.66 882.588C1279 881.118 1280.99 885.69 1281.22 882.086C1279.77 881.371 1278.58 879.999 1276.77 880.343C1276.89 882.086 1277.53 884.582 1276.75 885.043C1272.86 884.274 1269.34 884.722 1266.15 885.502C1264.61 885.879 1263.09 886.297 1261.58 886.755C1260.13 887.157 1258.77 887.516 1257.52 887.724C1257.7 887.003 1258.95 883.19 1257.4 883.069C1254.38 887.147 1249.62 886.076 1245.12 884.699C1240.59 883.343 1236.4 881.816 1233.2 885.437C1233.08 882.388 1231.69 881.467 1230.06 881.708C1228.43 881.96 1226.54 883.476 1225.57 885.455C1226.03 882.946 1225.55 881.538 1224.56 880.742C1223.58 879.948 1222.07 879.768 1220.42 879.637C1218.95 879.647 1220.72 882.947 1218.28 882.725C1217.46 881.915 1216.58 881.165 1215.66 880.481C1214.8 879.862 1213.9 879.312 1212.96 878.835C1211.12 877.834 1209.18 877.186 1207.15 876.473C1205.12 875.755 1202.95 875.107 1200.72 874.118C1198.47 873.19 1196.16 871.916 1193.79 870.209C1191.74 872.181 1193.53 874.926 1191.75 874.393C1189.57 874.751 1187.48 873.441 1185.79 871.814C1184.1 870.158 1182.72 868.318 1181.73 867.537C1182.72 868.352 1180.39 869.141 1181.13 867.162C1182.82 865.439 1183.3 866.541 1184.01 867.645C1184.7 868.76 1185.58 869.947 1187.74 868.356C1186.85 867.775 1185.3 865.891 1183.71 864.379C1182.13 862.854 1180.39 861.808 1178.85 862.938C1177.86 864.619 1179.04 864.353 1180.01 864.207C1180.97 864.069 1181.71 864.081 1179.94 866.409C1178.92 866.231 1178.16 865.967 1177.51 865.598C1176.88 865.223 1176.35 864.764 1175.78 864.225C1175.21 863.686 1174.59 863.069 1173.79 862.37C1172.81 861.488 1171.77 860.673 1170.68 859.93C1171.82 858.816 1172.82 858.758 1174.05 856.639C1172.21 857.904 1170.62 857.988 1168.87 857.799C1167.12 857.614 1165.13 857.271 1162.38 857.663C1163.06 859.035 1163.87 860.247 1164.73 861.407C1165.16 861.983 1165.61 862.541 1166.07 863.078C1166.54 863.6 1167.03 864.106 1167.53 864.596C1168.53 865.574 1169.56 866.523 1170.65 867.394C1171.74 868.261 1172.85 869.103 1173.98 869.95C1178.57 873.278 1183.36 876.479 1188.18 881.72C1181.56 878.309 1176.61 875.396 1172.25 872.277C1171.19 871.489 1170.14 870.677 1169.12 869.84C1168.09 869.016 1167.14 868.1 1166.18 867.177C1164.24 865.342 1162.46 863.208 1160.66 860.799C1159.69 861.762 1158.62 863.402 1157.82 862.952C1159.07 860.757 1158.3 859.051 1156.89 857.702C1155.49 856.353 1153.49 855.259 1152.19 854.502C1155.21 858.105 1151.74 854.909 1150 855.616C1150.97 855.945 1151.21 857.755 1151.16 859.247C1151.1 860.622 1150.78 861.709 1150.43 861.025C1151.17 862.907 1153.03 864.313 1154.8 865.67C1156.65 867.076 1158.48 868.307 1159.03 870.014C1159.3 870.802 1156.62 872.221 1157.48 873.254C1157.41 873.159 1159.68 870.533 1160.26 871.004C1161.8 872.245 1161.13 875.522 1162.63 877.166C1164.12 878.726 1167.6 879.063 1169.26 880.307C1177.32 886.392 1186.42 893.008 1196.83 898.527C1207.28 904.148 1218.6 908.475 1229.23 910.764C1236.37 912.323 1243.45 913.093 1250.28 913.43C1257.12 913.766 1263.71 913.676 1270.04 913.516C1276.37 913.355 1282.45 913.133 1288.33 913.156C1294.21 913.212 1300.04 913.435 1305.93 914.204C1303.47 914.27 1301.02 914.454 1298.58 914.753C1296.07 915.007 1293.52 915.435 1290.89 915.821C1285.69 916.662 1280.11 917.647 1274.22 918.395C1268.34 919.139 1262.12 919.622 1255.77 919.402C1249.42 919.185 1242.93 918.26 1236.71 916.264C1235.15 920.103 1233.42 915.268 1232.32 919.344C1238.91 920.039 1247.1 920.626 1254.89 921.05C1262.69 921.501 1270.11 921.839 1275.67 922.685C1276.51 925.78 1272.19 922.203 1272.99 925.288C1274.75 925.982 1278.45 922.626 1278.35 927.094C1266.15 927.811 1251.94 927.411 1237.21 925.594C1229.79 924.676 1222.4 923.449 1215.08 921.918C1213.26 921.567 1211.42 921.125 1209.63 920.732C1207.84 920.349 1206.04 919.901 1204.27 919.471L1201.63 918.835L1199 918.147C1197.27 917.685 1195.54 917.264 1193.88 916.809C1196.14 918.503 1198.58 919.955 1201.14 921.287C1203.66 922.541 1206.37 923.741 1209.19 924.757C1212.04 925.832 1215.02 926.761 1218.23 927.749L1223.18 929.171C1224.9 929.672 1226.62 930.113 1228.45 930.626C1236.25 932.756 1244.6 934.014 1252.81 934.591C1261.02 935.163 1269.08 935.071 1276.62 934.707L1279.44 934.566L1282.18 934.39C1284.02 934.281 1285.79 934.146 1287.53 934.014L1297.57 933.225C1304.03 932.747 1309.96 932.294 1315.16 932.4C1316.62 930.706 1321.47 928.929 1326.52 927.678C1329.05 927.07 1331.63 926.56 1333.9 926.375C1336.16 926.16 1338.11 926.22 1339.35 926.726C1346.7 924.213 1354.39 921.139 1362.1 917.701C1369.81 914.266 1377.53 910.47 1385.04 906.592C1388.84 904.65 1392.39 902.719 1395.96 900.878C1399.33 899.068 1402.77 897.312 1405.82 895.761L1408.16 894.609L1410.41 893.524C1411.85 892.842 1413.29 892.187 1414.75 891.558C1415.45 891.264 1416.15 890.973 1416.83 890.687C1417.51 890.414 1418.17 890.151 1418.84 889.9C1420.13 889.409 1421.44 888.957 1422.76 888.546C1422.56 889.009 1421.82 889.216 1422.43 890.169C1424.53 889.406 1426.57 888.484 1428.53 887.411C1430.48 886.356 1432.34 885.141 1434.08 883.777C1435.7 882.493 1437.24 881.023 1438.42 879.515C1439.57 878.036 1440.49 876.425 1441.05 874.734C1438.86 872.726 1438.07 877.62 1435.83 875.47C1436.57 874.457 1437.36 873.322 1438.46 872.407C1439 871.938 1439.62 871.564 1440.29 871.299C1441.07 871.001 1441.89 870.839 1442.73 870.822C1443.53 872.077 1443.14 872.482 1444.28 873.977L1445.59 873.014L1446.83 872.14L1449.28 870.437L1451.57 868.925C1452.33 868.429 1453.11 867.919 1453.79 867.51L1455.89 866.207C1456.25 865.975 1456.57 865.792 1456.89 865.605L1457.85 865.036L1458.8 864.46C1459.12 864.26 1459.44 864.069 1459.72 863.914C1460.3 863.583 1460.88 863.243 1461.45 862.894C1462.05 862.516 1462.55 862.242 1463.07 861.931C1463.58 861.624 1464.09 861.29 1464.59 860.966C1465.59 860.391 1466.54 859.754 1467.46 859.058C1468.48 858.399 1469.47 857.672 1470.4 856.883C1471.43 856.146 1472.43 855.281 1473.46 854.337C1476.43 851.747 1479.53 848.697 1482.87 845.191C1483.72 844.339 1484.59 843.469 1485.45 842.538L1486.77 841.123L1488.14 839.719L1493.85 833.646C1497.84 829.468 1502.15 824.821 1506.88 820.031C1509.23 817.551 1511.7 815.163 1514.25 812.546L1518.16 808.694C1519.49 807.38 1520.84 806.033 1522.23 804.732C1523.25 803.755 1524.31 802.76 1525.37 801.776L1526.98 800.313L1528.58 798.938C1530.67 797.14 1532.72 795.452 1534.33 794.144C1536.99 791.982 1539.31 790.799 1541.58 789.733C1543.84 788.671 1546.04 787.713 1548.63 786.071C1551.93 783.988 1555.72 780.889 1560.35 778.297C1562.65 777.019 1565.16 775.846 1567.79 775.07C1569.11 774.668 1570.46 774.362 1571.83 774.157C1573.18 773.998 1574.6 773.888 1575.97 773.984C1578.35 774.083 1580.96 774.81 1583.65 776.008C1586.35 777.202 1589.1 778.898 1591.7 780.95C1594.31 782.992 1596.81 785.359 1599.14 787.757C1599.73 788.347 1600.27 788.962 1600.85 789.546C1601.41 790.135 1602 790.699 1602.53 791.274C1603.07 791.833 1603.62 792.376 1604.19 792.902C1604.47 793.16 1604.75 793.41 1605.03 793.652C1605.3 793.897 1605.57 794.135 1605.85 794.363C1607.03 795.342 1608.25 796.266 1609.51 797.13C1610.65 797.947 1611.85 798.685 1613.09 799.338C1615.5 800.594 1617.96 801.384 1620.47 801.636C1622.97 801.89 1625.53 801.603 1628.09 800.775C1630.65 799.951 1633.21 798.584 1635.69 796.779C1638.15 794.987 1640.45 792.796 1642.64 790.367C1643.71 789.168 1644.74 787.935 1645.73 786.667C1646.71 785.415 1647.66 784.148 1648.57 782.903L1651.16 779.329C1651.94 778.263 1652.74 777.219 1653.57 776.198C1655.14 774.298 1656.65 772.836 1658.2 772.192C1659.2 764.71 1659.24 757.229 1658.44 750.238Z" fill="url(#paint4_linear)"></path><g filter="url(#filter0_d)"></g><path d="M435,960 C503.5,960 578.5,960 578.5,960 C619,960 720,960 754,960 C754,883.232 658.83,801 582.062,801 C505.295,801 545.547,941.293 435,960 " fill-rule="evenodd" fill-opacity="0.5" fill="url(#paint5_linear)" clip-rule="evenodd"></path></g><defs><filter id="filter0_d" x="445" y="211" width="550" height="539" filterUnits="userSpaceOnUse" color-interpolation-filters="sRGB"><feFlood flood-opacity="0" result="BackgroundImageFix"></feFlood><feColorMatrix in="SourceAlpha" type="matrix" values="0 0 0 0 0 0 0 0 0 0 0 0 0 0 0 0 0 0 127 0"></feColorMatrix><feOffset dy="1"></feOffset><feGaussianBlur stdDeviation="12.5"></feGaussianBlur><feColorMatrix type="matrix" values="0 0 0 0 0.380392 0 0 0 0 0.380392 0 0 0 0 0.380392 0 0 0 0.1 0"></feColorMatrix><feBlend mode="normal" in2="BackgroundImageFix" result="effect1_dropShadow"></feBlend><feBlend mode="normal" in="SourceGraphic" in2="effect1_dropShadow" result="shape"></feBlend></filter><linearGradient id="paint0_linear" x1="720" y1="0" x2="720" y2="960" gradientUnits="userSpaceOnUse"><stop stop-color="#182738"></stop><stop offset="1" stop-color="#1F4B7D"></stop></linearGradient><linearGradient id="paint1_linear" x1="427.5" y1="230" x2="-44" y2="378" gradientUnits="userSpaceOnUse"><stop stop-color="#1F4B7D" stop-opacity="0"></stop><stop offset="1" stop-color="#45668E" stop-opacity="0.6"></stop></linearGradient><linearGradient id="paint2_linear" x1="-3.55437e-06" y1="180" x2="169" y2="219" gradientUnits="userSpaceOnUse"><stop stop-color="#A4EAF1" stop-opacity="0.8"></stop><stop offset="1" stop-color="#9CA2DE" stop-opacity="0.25"></stop></linearGradient><linearGradient id="paint3_linear" x1="1991.23" y1="523.123" x2="1246.5" y2="307.5" gradientUnits="userSpaceOnUse"><stop stop-color="#225DA1"></stop><stop offset="1" stop-color="#BCC7D3" stop-opacity="0"></stop></linearGradient><linearGradient id="paint4_linear" x1="1404.5" y1="678" x2="1404.5" y2="935" gradientUnits="userSpaceOnUse"><stop offset="0.46875" stop-color="#9CA2DE"></stop><stop offset="1" stop-color="#A4EAF1" stop-opacity="0.31"></stop></linearGradient><linearGradient id="paint5_linear" x1="568.878" y1="1127.23" x2="568.878" y2="804.672" gradientUnits="userSpaceOnUse"><stop stop-color="white"></stop><stop offset="1" stop-color="white" stop-opacity="0"></stop></linearGradient><clipPath id="clip0"><rect width="1440" height="960" fill="white"></rect></clipPath></defs></svg>