<svg width="41" height="41" viewBox="0 0 41 41" fill="none" xmlns="http://www.w3.org/2000/svg">
<path d="M40.4355 3.27628C41.1882 2.52353 41.1882 1.30631 40.4355 0.561565C39.6828 -0.183179 38.4657 -0.191187 37.721 0.561565L30.6664 7.6006C29.9137 8.35336 29.9137 9.57057 30.6664 10.3153C31.4191 11.0601 32.6362 11.0681 33.3809 10.3153L40.4275 3.26827L40.4355 3.27628ZM24.4607 2.17918C23.9642 1.68269 23.1475 1.68269 22.651 2.17918L21.7381 3.08409C18.7354 6.08709 18.7354 10.956 21.7381 13.959L22.5709 14.7918L20.1287 17.2342C19.8564 15.0481 18.8875 12.9259 17.2059 11.2442L16.3011 10.3393C15.8046 9.84285 14.9879 9.84285 14.4914 10.3393L13.5866 11.2442C10.5838 14.2472 10.5838 19.1161 13.5866 22.1191L14.4194 22.952L11.9771 25.3944C11.7048 23.2082 10.7359 21.0861 9.05439 19.4044L8.14955 18.4915C7.65309 17.995 6.83634 17.995 6.33988 18.4915L5.43504 19.3964C2.43225 22.3994 2.43225 27.2683 5.43504 30.2713L6.26781 31.1041L0.750696 36.6216C-0.250232 37.6226 -0.250232 39.2482 0.750696 40.2492C1.75162 41.2502 3.37713 41.2502 4.37806 40.2492L9.89517 34.7317L10.8721 35.7087C13.8749 38.7117 18.7434 38.7117 21.7462 35.7087L22.651 34.8038C23.1475 34.3073 23.1475 33.4905 22.651 32.994L21.7462 32.0891C20.0005 30.3433 17.7745 29.3584 15.4924 29.1341L18.0467 26.5796L19.0236 27.5566C22.0264 30.5596 26.8949 30.5596 29.8977 27.5566L30.8025 26.6517C31.299 26.1552 31.299 25.3383 30.8025 24.8418L29.8977 23.9369C28.1521 22.1912 25.926 21.2062 23.6439 20.982L26.1983 18.4274L27.1752 19.4044C30.178 22.4074 35.0465 22.4074 38.0493 19.4044L38.9541 18.4915C39.4506 17.995 39.4506 17.1782 38.9541 16.6817L38.0493 15.7688C37.6329 15.3524 37.2005 14.984 36.736 14.6557L40.4355 10.964C41.1882 10.2112 41.1882 8.994 40.4355 8.24925C39.6828 7.50451 38.4657 7.4965 37.721 8.24925L32.9646 13.006C31.315 12.6537 29.6014 12.7097 27.9759 13.1742C28.4644 11.4685 28.5044 9.66667 28.088 7.94495L32.7484 3.27628C33.501 2.52353 33.501 1.30631 32.7484 0.561565C31.9957 -0.183179 30.7785 -0.191187 30.0338 0.561565L26.3504 4.22923C26.0541 3.82883 25.7258 3.44445 25.3575 3.08409L24.4607 2.17918Z" fill="white"/>
</svg>
