<svg width="100" height="100" viewBox="0 0 100 100" fill="none" xmlns="http://www.w3.org/2000/svg">
<rect width="100" height="100" rx="8" fill="#13D3BD" fill-opacity="0.3"/>
<path d="M70.4355 33.2763C71.1882 32.5235 71.1882 31.3063 70.4355 30.5616C69.6828 29.8168 68.4657 29.8088 67.721 30.5616L60.6664 37.6006C59.9137 38.3534 59.9137 39.5706 60.6664 40.3153C61.4191 41.0601 62.6362 41.0681 63.3809 40.3153L70.4275 33.2683L70.4355 33.2763ZM54.4607 32.1792C53.9642 31.6827 53.1475 31.6827 52.651 32.1792L51.7381 33.0841C48.7354 36.0871 48.7354 40.956 51.7381 43.959L52.5709 44.7918L50.1287 47.2342C49.8564 45.0481 48.8875 42.9259 47.2059 41.2442L46.3011 40.3393C45.8046 39.8428 44.9879 39.8428 44.4914 40.3393L43.5866 41.2442C40.5838 44.2472 40.5838 49.1161 43.5866 52.1191L44.4194 52.952L41.9771 55.3944C41.7048 53.2082 40.7359 51.0861 39.0544 49.4044L38.1496 48.4915C37.6531 47.995 36.8363 47.995 36.3399 48.4915L35.435 49.3964C32.4323 52.3994 32.4323 57.2683 35.435 60.2713L36.2678 61.1041L30.7507 66.6216C29.7498 67.6226 29.7498 69.2482 30.7507 70.2492C31.7516 71.2502 33.3771 71.2502 34.3781 70.2492L39.8952 64.7317L40.8721 65.7087C43.8749 68.7117 48.7434 68.7117 51.7462 65.7087L52.651 64.8038C53.1475 64.3073 53.1475 63.4905 52.651 62.994L51.7462 62.0891C50.0005 60.3433 47.7745 59.3584 45.4924 59.1341L48.0467 56.5796L49.0236 57.5566C52.0264 60.5596 56.8949 60.5596 59.8977 57.5566L60.8025 56.6517C61.299 56.1552 61.299 55.3383 60.8025 54.8418L59.8977 53.9369C58.1521 52.1912 55.926 51.2062 53.6439 50.982L56.1983 48.4274L57.1752 49.4044C60.178 52.4074 65.0465 52.4074 68.0493 49.4044L68.9541 48.4915C69.4506 47.995 69.4506 47.1782 68.9541 46.6817L68.0493 45.7688C67.6329 45.3524 67.2005 44.984 66.736 44.6557L70.4355 40.964C71.1882 40.2112 71.1882 38.994 70.4355 38.2493C69.6828 37.5045 68.4657 37.4965 67.721 38.2493L62.9646 43.006C61.315 42.6537 59.6014 42.7097 57.9759 43.1742C58.4644 41.4685 58.5044 39.6667 58.088 37.9449L62.7484 33.2763C63.501 32.5235 63.501 31.3063 62.7484 30.5616C61.9957 29.8168 60.7785 29.8088 60.0338 30.5616L56.3504 34.2292C56.0541 33.8288 55.7258 33.4444 55.3575 33.0841L54.4607 32.1792Z" fill="white"/>
</svg>
