<?xml version="1.0" standalone="yes"?><svg xmlns="http://www.w3.org/2000/svg" width="100%" height="100%" viewBox="0 0 101 31" fill="none" style="zoom: 0.5;"><path d="M8.57744 14.2642H4.1123V29.7653H8.57744V14.2642Z" fill="white"></path><path d="M25.9528 4.16522V14.2421C24.4204 12.1694 22.1492 10.8574 19.6135 10.8574C15.005 10.8574 11.2786 15.1682 11.2786 20.4822C11.2786 25.7963 15.016 30.1071 19.6135 30.1071C22.1492 30.1071 24.4204 28.7951 25.9528 26.7224V29.7543H30.418V4.16522H25.9528ZM20.9034 26.3696C17.9156 26.3696 15.5011 23.7456 15.5011 20.4932C15.5011 17.2519 17.9156 14.6169 20.9034 14.6169C23.8912 14.6169 26.3056 17.2409 26.3056 20.4932C26.3056 23.7346 23.8912 26.3696 20.9034 26.3696Z" fill="white"></path><path d="M47.4404 24.4843C47.4404 24.4843 45.0921 26.8326 42.5122 26.8326C39.9324 26.8326 36.9777 24.7158 36.9777 21.9044H50.6377C50.7038 21.4414 50.7369 20.9783 50.7369 20.4932C50.7369 15.1792 46.7458 10.8684 41.8177 10.8684C36.8895 10.8684 32.8984 15.1792 32.8984 20.4932C32.8984 25.8073 36.8895 30.1181 41.8177 30.1181C44.8054 30.1181 47.694 29.4125 49.7998 26.8326L47.4404 24.4843ZM41.8066 14.3633C44.155 14.3633 46.4702 16.7337 46.4702 19.3136H36.9777C36.9667 16.5022 39.4583 14.3633 41.8066 14.3633Z" fill="white"></path><path d="M97.7034 24.4843C97.7034 24.4843 95.355 26.8326 92.7752 26.8326C90.1953 26.8326 87.2406 24.7158 87.2406 21.9044H100.901C100.967 21.4414 101 20.9783 101 20.4932C101 15.1792 97.0088 10.8684 92.0806 10.8684C87.1524 10.8684 83.1614 15.1792 83.1614 20.4932C83.1614 25.8073 87.1524 30.1181 92.0806 30.1181C95.0684 30.1181 97.9569 29.4125 100.063 26.8326L97.7034 24.4843ZM92.0696 14.3633C94.4179 14.3633 96.7332 16.7337 96.7332 19.3136H87.2406C87.2296 16.5022 89.7102 14.3633 92.0696 14.3633Z" fill="white"></path><path d="M60.3619 11.0999C57.0765 11.0999 55.8968 11.574 53.317 12.5111L54.7282 16.0391C54.7282 16.0391 57.0765 14.6279 59.4248 14.6279C62.7103 14.6279 64.2427 16.5022 64.2427 18.0346V19.1151C62.7213 18.619 61.7731 18.3764 59.4248 18.3764C57.0765 18.3764 51.9058 18.8505 51.9058 24.2527C51.9058 29.655 56.3709 29.8865 58.4767 29.8865C60.2407 29.8865 62.6551 29.225 64.2317 27.7807V29.7652H68.4653V18.0236C68.4653 12.2686 63.6474 11.0999 60.3619 11.0999ZM59.6563 27.0641C58.4767 27.0641 55.8968 26.59 55.8968 24.2417C55.8968 21.8934 58.4767 21.276 60.1855 21.276C61.7842 21.276 62.8095 21.4083 64.2868 21.9926C64.4743 22.0698 64.5955 22.2572 64.5845 22.4557C64.3971 26.6231 60.8029 27.0641 59.6563 27.0641Z" fill="white"></path><path d="M81.6072 25.5427C80.4276 26.0168 79.9645 26.2593 78.7848 26.2483C77.6052 26.2483 76.7893 25.3112 76.7893 24.4843L76.8003 14.7382H81.6183V11.2102H76.8003V6.16077H72.5778V11.2102H70.1082V14.7382H72.5778L72.5667 24.4843C72.5667 26.0058 72.4675 29.7653 77.6272 29.7763C79.722 29.7763 81.6072 28.9494 81.6072 28.9494V25.5427Z" fill="white"></path><path d="M6.33938 0.769531C2.83343 0.769531 0 3.61398 0 7.10891C0 10.6038 2.84445 13.4483 6.33938 13.4483C9.8343 13.4483 12.6788 10.6038 12.6788 7.10891C12.6788 3.61398 9.84533 0.769531 6.33938 0.769531ZM7.7616 9.71081V10.8684H7.04498L6.33938 11.574L5.8653 10.8684H4.92818V9.68876C4.92818 9.68876 3.7926 8.27756 3.7926 7.10891C3.7926 5.94026 4.69665 4.55111 6.33938 4.55111C7.9821 4.55111 9.16178 5.46618 9.16178 7.10891C9.16178 8.75163 7.7616 9.71081 7.7616 9.71081Z" fill="#EFAF45"></path></svg>