<svg width="297" height="91" viewBox="0 0 297 91" fill="none" xmlns="http://www.w3.org/2000/svg">
<path d="M39.0325 1.45807H0V88.976H1.22872C12.0497 88.976 20.8474 80.6289 20.8474 70.3649V61.5099H39.0325C59.2327 61.5099 72.2818 49.6323 72.2818 31.2423C72.2818 12.8524 59.2327 1.45807 39.0325 1.45807ZM38.2625 42.5302H20.8474V20.4378H38.2625C46.7161 20.4378 51.1805 24.255 51.1805 31.4799C51.1805 38.7048 46.5933 42.5302 38.2625 42.5302Z" fill="#024357"/>
<path d="M121.783 1.45807H96.8321L62.1738 88.976H84.2417L91.9582 68.9232H126.657L134.243 88.976H156.442L121.783 1.45807ZM99.1994 49.9435L109.242 23.7389L119.285 49.9435H99.1994Z" fill="#024357"/>
<path d="M145.817 20.446H171.662V88.976H192.509V20.446H218.484V1.45807H145.817V20.446Z" fill="#024357"/>
<path d="M259.294 34.6582C247.032 32.1352 243.943 31.0048 243.943 27.2367C243.943 21.7648 249.17 18.6193 258.27 18.6193C270.05 18.6193 273.179 23.6161 274.588 27.974L274.866 28.8259H295.828L295.624 27.4169C294.133 17.1776 287.276 0 258.147 0C248.948 0 240.396 2.44926 234.056 6.88905C226.807 11.976 222.973 19.2582 222.973 27.9576C222.973 36.0836 226.168 42.1698 232.729 46.5359C238.865 50.6235 247.146 52.6386 254.428 54.0721L257.427 54.6864C271.508 57.578 275.571 58.6265 275.571 63.3121C275.571 70.7008 266.429 71.8067 260.982 71.8067C249.489 71.8067 244.05 68.5137 241.584 60.0519L241.33 59.1672H220.483L220.679 60.5679C221.933 69.5458 228.388 90.426 261.113 90.426C278.749 90.426 296.541 81.8167 296.541 62.583C296.541 45.2253 284.532 39.7451 259.302 34.6418L259.294 34.6582Z" fill="#024357"/>
</svg>
