<svg width="58" height="52" viewBox="0 0 58 52" fill="none" xmlns="http://www.w3.org/2000/svg">
<path d="M25.659 7.6412C27.2782 12.4673 25.625 17.3385 21.9678 18.531C18.3105 19.7234 14.0305 16.776 12.4113 11.9499C10.7922 7.12371 12.4453 2.25256 16.1026 1.06009C19.7598 -0.132385 24.0399 2.81505 25.659 7.6412ZM11.3809 19.5322C13.521 23.1771 13.0001 27.4183 10.226 28.9932C7.45193 30.5682 3.4663 28.892 1.33761 25.2471C-0.791079 21.6021 -0.292875 17.361 2.48121 15.786C5.2553 14.2111 9.24094 15.8873 11.3696 19.5322H11.3809ZM7.84823 42.3242C13.7814 26.4283 24.3229 22.3896 28.9992 22.3896C33.6756 22.3896 44.2171 26.4283 50.1503 42.3242C50.5579 43.4154 50.739 44.5854 50.739 45.7554V45.9354C50.739 48.8378 48.3726 51.189 45.4513 51.189C44.1492 51.189 42.8584 51.0315 41.6015 50.7165L31.6375 48.2416C29.9051 47.8141 28.0934 47.8141 26.361 48.2416L16.397 50.7165C15.1401 51.0315 13.8493 51.189 12.5472 51.189C9.62591 51.189 7.25944 48.8378 7.25944 45.9354V45.7554C7.25944 44.5854 7.44061 43.4154 7.84823 42.3242ZM47.7725 28.9932C44.9984 27.4183 44.4775 23.1771 46.6175 19.5322C48.7576 15.8873 52.7319 14.2111 55.506 15.786C58.28 17.361 58.8009 21.6021 56.6609 25.2471C54.5209 28.892 50.5466 30.5682 47.7725 28.9932ZM35.1249 18.531C31.4676 17.3385 29.8145 12.4673 31.4337 7.6412C33.0528 2.81505 37.3328 -0.132385 40.9901 1.06009C44.6474 2.25256 46.3005 7.12371 44.6813 11.9499C43.0622 16.776 38.7822 19.7234 35.1249 18.531Z" fill="white"/>
</svg>
