<svg width="58" height="54" viewBox="0 0 58 54" fill="none" xmlns="http://www.w3.org/2000/svg">
<path d="M18.56 30.7429C17.5994 29.5783 15.7778 29.3388 14.5 30.2143C13.2222 31.0897 12.9594 32.7498 13.92 33.9143L17.3728 38.1098C17.8078 38.6384 17.7444 39.3734 17.2369 39.8359L16.0769 40.8931C15.4697 41.4464 14.4819 41.4051 13.9381 40.8022L5.8 31.8991V19.6429C5.8 18.181 4.50406 17 2.9 17C1.29594 17 0 18.181 0 19.6429V37.6804C0 38.5806 0.335312 39.456 0.951562 40.158L10.3856 51.2498C10.8387 51.7866 11.1469 52.3978 11.3281 53.042C11.4913 53.6118 12.0622 54 12.7147 54H24.65C25.4475 54 26.1 53.4054 26.1 52.6786V43.4286C26.1 41.1408 25.2844 38.9192 23.78 37.0857L18.56 30.7429ZM55.1 17C53.4959 17 52.2 18.181 52.2 19.6429V31.8991L44.0619 40.8022C43.5181 41.3969 42.5213 41.4382 41.9231 40.8931L40.7631 39.8359C40.2556 39.3734 40.1922 38.6384 40.6272 38.1098L44.08 33.9143C45.0406 32.7498 44.7778 31.0897 43.5 30.2143C42.2222 29.3388 40.4006 29.5783 39.44 30.7429L34.22 37.0857C32.7156 38.9192 31.9 41.1408 31.9 43.4286V52.6786C31.9 53.4054 32.5525 54 33.35 54H45.2853C45.9287 54 46.5088 53.6118 46.6719 53.042C46.8531 52.3978 47.1612 51.7866 47.6144 51.2498L57.0484 40.158C57.6647 39.456 58 38.5806 58 37.6804V19.6429C58 18.181 56.7041 17 55.1 17Z" fill="white"/>
<path d="M29.0003 9.85735C24.9678 9.85735 19.2504 16.1597 19.2504 20.1379C19.2504 21.9296 20.6118 23 22.8934 23C25.3735 23 27.0112 21.7124 29.0003 21.7124C31.0066 21.7124 32.6488 23 35.1071 23C37.3887 23 38.7502 21.9296 38.7502 20.1379C38.7502 16.1597 33.0327 9.85735 29.0003 9.85735ZM21.5213 9.20997C20.9931 7.43109 19.3661 6.27906 17.8874 6.63637C16.4087 6.99369 15.6383 8.72534 16.1664 10.5042C16.6946 12.2831 18.3216 13.4351 19.8003 13.0778C21.279 12.7205 22.0494 10.9888 21.5213 9.20997ZM25.8234 8.14316C27.3946 7.72526 28.1807 5.57931 27.5794 3.3502C26.9782 1.12108 25.2171 -0.346686 23.6459 0.071209C22.0748 0.489104 21.2887 2.63505 21.8899 4.86417C22.4912 7.09329 24.2528 8.56157 25.8234 8.14316ZM40.1126 6.63689C38.6339 6.27957 37.0074 7.43161 36.4787 9.21048C35.9506 10.9894 36.721 12.721 38.1997 13.0783C39.6784 13.4356 41.3049 12.2836 41.8336 10.5047C42.3617 8.72585 41.5913 6.9942 40.1126 6.63689ZM32.1771 8.14316C33.7482 8.56105 35.5093 7.09329 36.1106 4.86417C36.7118 2.63505 35.9257 0.489618 34.3546 0.071209C32.7834 -0.3472 31.0223 1.12108 30.4211 3.3502C29.8199 5.57931 30.6059 7.72526 32.1771 8.14316Z" fill="white"/>
</svg>
