<svg width="100" height="127" viewBox="0 0 100 127" fill="none" xmlns="http://www.w3.org/2000/svg">
<rect width="100" height="100" rx="8" fill="#13D3BD" fill-opacity="0.3"/>
<path d="M26.8385 108.088H30.3245C30.9591 108.088 31.4818 108.177 31.8925 108.354C32.3031 108.522 32.6251 108.741 32.8585 109.012C33.1011 109.273 33.2691 109.572 33.3625 109.908C33.4558 110.235 33.5025 110.552 33.5025 110.86C33.5025 111.177 33.4465 111.485 33.3345 111.784C33.2225 112.073 33.0591 112.339 32.8445 112.582C32.6391 112.815 32.3825 113.016 32.0745 113.184C31.7758 113.343 31.4398 113.441 31.0665 113.478L33.8805 118H32.2005L29.6805 113.632H28.1825V118H26.8385V108.088ZM28.1825 112.456H29.9465C30.2078 112.456 30.4645 112.437 30.7165 112.4C30.9778 112.353 31.2065 112.274 31.4025 112.162C31.6078 112.05 31.7711 111.891 31.8925 111.686C32.0138 111.471 32.0745 111.196 32.0745 110.86C32.0745 110.524 32.0138 110.253 31.8925 110.048C31.7711 109.833 31.6078 109.67 31.4025 109.558C31.2065 109.446 30.9778 109.371 30.7165 109.334C30.4645 109.287 30.2078 109.264 29.9465 109.264H28.1825V112.456ZM36.027 115.144C36.027 115.433 36.0877 115.699 36.209 115.942C36.3397 116.175 36.5077 116.376 36.713 116.544C36.9184 116.712 37.1564 116.843 37.427 116.936C37.6977 117.029 37.9777 117.076 38.267 117.076C38.659 117.076 38.9997 116.987 39.289 116.81C39.5784 116.623 39.8444 116.381 40.087 116.082L41.039 116.81C40.339 117.715 39.359 118.168 38.099 118.168C37.5764 118.168 37.1004 118.079 36.671 117.902C36.251 117.725 35.8917 117.482 35.593 117.174C35.3037 116.857 35.0797 116.488 34.921 116.068C34.7624 115.639 34.683 115.177 34.683 114.682C34.683 114.187 34.767 113.73 34.935 113.31C35.1124 112.881 35.3504 112.512 35.649 112.204C35.957 111.887 36.321 111.639 36.741 111.462C37.161 111.285 37.6184 111.196 38.113 111.196C38.701 111.196 39.1957 111.299 39.597 111.504C40.0077 111.709 40.3437 111.98 40.605 112.316C40.8664 112.643 41.053 113.016 41.165 113.436C41.2864 113.847 41.347 114.267 41.347 114.696V115.144H36.027ZM40.003 114.136C39.9937 113.856 39.947 113.599 39.863 113.366C39.7884 113.133 39.6717 112.932 39.513 112.764C39.3544 112.587 39.1537 112.451 38.911 112.358C38.6777 112.255 38.4024 112.204 38.085 112.204C37.777 112.204 37.4924 112.265 37.231 112.386C36.979 112.498 36.7644 112.647 36.587 112.834C36.4097 113.021 36.2697 113.231 36.167 113.464C36.0737 113.688 36.027 113.912 36.027 114.136H40.003ZM46.3823 113.03C46.233 112.843 46.0463 112.689 45.8223 112.568C45.6077 112.437 45.3417 112.372 45.0243 112.372C44.7257 112.372 44.4643 112.437 44.2403 112.568C44.0257 112.689 43.9183 112.871 43.9183 113.114C43.9183 113.31 43.979 113.469 44.1003 113.59C44.231 113.711 44.3803 113.809 44.5483 113.884C44.7257 113.959 44.9123 114.015 45.1083 114.052C45.3043 114.089 45.4723 114.122 45.6123 114.15C45.883 114.215 46.135 114.295 46.3683 114.388C46.611 114.481 46.8163 114.603 46.9843 114.752C47.1617 114.901 47.297 115.083 47.3903 115.298C47.493 115.513 47.5443 115.774 47.5443 116.082C47.5443 116.455 47.465 116.777 47.3063 117.048C47.1477 117.309 46.9423 117.524 46.6903 117.692C46.4383 117.86 46.149 117.981 45.8223 118.056C45.505 118.131 45.183 118.168 44.8563 118.168C44.3057 118.168 43.8203 118.084 43.4003 117.916C42.9897 117.748 42.621 117.44 42.2943 116.992L43.2463 116.208C43.4517 116.413 43.6803 116.595 43.9323 116.754C44.1843 116.913 44.4923 116.992 44.8563 116.992C45.015 116.992 45.1737 116.978 45.3323 116.95C45.5003 116.913 45.645 116.861 45.7663 116.796C45.897 116.721 45.9997 116.633 46.0743 116.53C46.1583 116.418 46.2003 116.292 46.2003 116.152C46.2003 115.965 46.1397 115.811 46.0183 115.69C45.9063 115.569 45.7663 115.475 45.5983 115.41C45.4397 115.335 45.267 115.279 45.0803 115.242C44.903 115.195 44.7443 115.158 44.6043 115.13C44.3337 115.065 44.077 114.99 43.8343 114.906C43.5917 114.822 43.377 114.71 43.1903 114.57C43.0037 114.43 42.8543 114.253 42.7423 114.038C42.6303 113.823 42.5743 113.557 42.5743 113.24C42.5743 112.895 42.6443 112.596 42.7843 112.344C42.9337 112.083 43.125 111.868 43.3583 111.7C43.601 111.532 43.8717 111.406 44.1703 111.322C44.4783 111.238 44.7863 111.196 45.0943 111.196C45.5423 111.196 45.9717 111.28 46.3823 111.448C46.793 111.616 47.1197 111.896 47.3623 112.288L46.3823 113.03ZM53.821 113.128C53.5877 112.885 53.3404 112.703 53.079 112.582C52.827 112.451 52.5237 112.386 52.169 112.386C51.8237 112.386 51.5204 112.451 51.259 112.582C51.007 112.703 50.7924 112.876 50.615 113.1C50.447 113.315 50.3164 113.567 50.223 113.856C50.139 114.136 50.097 114.43 50.097 114.738C50.097 115.046 50.1484 115.34 50.251 115.62C50.3537 115.891 50.4984 116.129 50.685 116.334C50.8717 116.539 51.0957 116.703 51.357 116.824C51.6184 116.936 51.9124 116.992 52.239 116.992C52.5937 116.992 52.897 116.931 53.149 116.81C53.401 116.679 53.6344 116.493 53.849 116.25L54.745 117.146C54.4184 117.51 54.0357 117.771 53.597 117.93C53.1677 118.089 52.7104 118.168 52.225 118.168C51.7117 118.168 51.2404 118.084 50.811 117.916C50.391 117.748 50.027 117.515 49.719 117.216C49.411 116.908 49.173 116.544 49.005 116.124C48.837 115.695 48.753 115.223 48.753 114.71C48.753 114.197 48.837 113.725 49.005 113.296C49.173 112.867 49.4064 112.498 49.705 112.19C50.013 111.882 50.377 111.644 50.797 111.476C51.2264 111.299 51.7024 111.21 52.225 111.21C52.7104 111.21 53.1724 111.299 53.611 111.476C54.059 111.644 54.4464 111.905 54.773 112.26L53.821 113.128ZM61.709 118H60.449V116.978H60.421C60.2623 117.333 59.987 117.622 59.595 117.846C59.203 118.061 58.7503 118.168 58.237 118.168C57.9103 118.168 57.6023 118.117 57.313 118.014C57.0236 117.921 56.767 117.771 56.543 117.566C56.3283 117.361 56.1556 117.099 56.025 116.782C55.8943 116.455 55.829 116.073 55.829 115.634V111.364H57.089V115.284C57.089 115.592 57.131 115.858 57.215 116.082C57.299 116.297 57.411 116.474 57.551 116.614C57.691 116.745 57.8496 116.843 58.027 116.908C58.2136 116.964 58.405 116.992 58.601 116.992C58.8623 116.992 59.105 116.95 59.329 116.866C59.553 116.782 59.749 116.651 59.917 116.474C60.085 116.287 60.2156 116.054 60.309 115.774C60.4023 115.494 60.449 115.163 60.449 114.78V111.364H61.709V118ZM64.5603 115.144C64.5603 115.433 64.6209 115.699 64.7423 115.942C64.8729 116.175 65.0409 116.376 65.2463 116.544C65.4516 116.712 65.6896 116.843 65.9603 116.936C66.2309 117.029 66.5109 117.076 66.8003 117.076C67.1923 117.076 67.5329 116.987 67.8223 116.81C68.1116 116.623 68.3776 116.381 68.6203 116.082L69.5723 116.81C68.8723 117.715 67.8923 118.168 66.6323 118.168C66.1096 118.168 65.6336 118.079 65.2043 117.902C64.7843 117.725 64.4249 117.482 64.1263 117.174C63.8369 116.857 63.6129 116.488 63.4543 116.068C63.2956 115.639 63.2163 115.177 63.2163 114.682C63.2163 114.187 63.3003 113.73 63.4683 113.31C63.6456 112.881 63.8836 112.512 64.1823 112.204C64.4903 111.887 64.8543 111.639 65.2743 111.462C65.6943 111.285 66.1516 111.196 66.6463 111.196C67.2343 111.196 67.7289 111.299 68.1303 111.504C68.5409 111.709 68.8769 111.98 69.1383 112.316C69.3996 112.643 69.5863 113.016 69.6983 113.436C69.8196 113.847 69.8803 114.267 69.8803 114.696V115.144H64.5603ZM68.5363 114.136C68.5269 113.856 68.4803 113.599 68.3963 113.366C68.3216 113.133 68.2049 112.932 68.0463 112.764C67.8876 112.587 67.6869 112.451 67.4443 112.358C67.2109 112.255 66.9356 112.204 66.6183 112.204C66.3103 112.204 66.0256 112.265 65.7643 112.386C65.5123 112.498 65.2976 112.647 65.1203 112.834C64.9429 113.021 64.8029 113.231 64.7003 113.464C64.6069 113.688 64.5603 113.912 64.5603 114.136H68.5363Z" fill="#555555"/>
<path d="M39.56 53.7429C38.5994 52.5783 36.7778 52.3388 35.5 53.2143C34.2222 54.0897 33.9594 55.7498 34.92 56.9143L38.3728 61.1098C38.8078 61.6384 38.7444 62.3734 38.2369 62.8359L37.0769 63.8931C36.4697 64.4464 35.4819 64.4051 34.9381 63.8022L26.8 54.8991V42.6429C26.8 41.181 25.5041 40 23.9 40C22.2959 40 21 41.181 21 42.6429V60.6804C21 61.5806 21.3353 62.456 21.9516 63.158L31.3856 74.2498C31.8387 74.7866 32.1469 75.3978 32.3281 76.042C32.4913 76.6118 33.0622 77 33.7147 77H45.65C46.4475 77 47.1 76.4054 47.1 75.6786V66.4286C47.1 64.1408 46.2844 61.9192 44.78 60.0857L39.56 53.7429ZM76.1 40C74.4959 40 73.2 41.181 73.2 42.6429V54.8991L65.0619 63.8022C64.5181 64.3969 63.5213 64.4382 62.9231 63.8931L61.7631 62.8359C61.2556 62.3734 61.1922 61.6384 61.6272 61.1098L65.08 56.9143C66.0406 55.7498 65.7778 54.0897 64.5 53.2143C63.2222 52.3388 61.4006 52.5783 60.44 53.7429L55.22 60.0857C53.7156 61.9192 52.9 64.1408 52.9 66.4286V75.6786C52.9 76.4054 53.5525 77 54.35 77H66.2853C66.9287 77 67.5088 76.6118 67.6719 76.042C67.8531 75.3978 68.1612 74.7866 68.6144 74.2498L78.0484 63.158C78.6647 62.456 79 61.5806 79 60.6804V42.6429C79 41.181 77.7041 40 76.1 40Z" fill="white"/>
<path d="M50.0003 32.8573C45.9678 32.8573 40.2504 39.1597 40.2504 43.1379C40.2504 44.9296 41.6118 46 43.8934 46C46.3735 46 48.0112 44.7124 50.0003 44.7124C52.0066 44.7124 53.6488 46 56.1071 46C58.3887 46 59.7502 44.9296 59.7502 43.1379C59.7502 39.1597 54.0327 32.8573 50.0003 32.8573ZM42.5213 32.21C41.9931 30.4311 40.3661 29.2791 38.8874 29.6364C37.4087 29.9937 36.6383 31.7253 37.1664 33.5042C37.6946 35.2831 39.3216 36.4351 40.8003 36.0778C42.279 35.7205 43.0494 33.9888 42.5213 32.21ZM46.8234 31.1432C48.3946 30.7253 49.1807 28.5793 48.5794 26.3502C47.9782 24.1211 46.2171 22.6533 44.6459 23.0712C43.0748 23.4891 42.2887 25.6351 42.8899 27.8642C43.4912 30.0933 45.2528 31.5616 46.8234 31.1432ZM61.1126 29.6369C59.6339 29.2796 58.0074 30.4316 57.4787 32.2105C56.9506 33.9894 57.721 35.721 59.1997 36.0783C60.6784 36.4356 62.3049 35.2836 62.8336 33.5047C63.3617 31.7259 62.5913 29.9942 61.1126 29.6369ZM53.1771 31.1432C54.7482 31.5611 56.5093 30.0933 57.1106 27.8642C57.7118 25.6351 56.9257 23.4896 55.3546 23.0712C53.7834 22.6528 52.0223 24.1211 51.4211 26.3502C50.8199 28.5793 51.6059 30.7253 53.1771 31.1432Z" fill="white"/>
</svg>
