<svg width="100" height="100" viewBox="0 0 100 100" fill="none" xmlns="http://www.w3.org/2000/svg">
<rect width="100" height="100" rx="8" fill="#13D3BD" fill-opacity="0.3"/>
<path d="M60.1492 56.8853L58.7196 58.7134L56.8911 60.1428C53.6987 62.6385 49.6854 64.121 45.314 64.121C34.9206 64.121 26.5 55.7015 26.5 45.3105C26.5 34.9196 34.9206 26.5 45.314 26.5C55.7073 26.5 64.128 34.9196 64.128 45.3105C64.128 49.681 62.6452 53.6934 60.1492 56.8853ZM59.3149 61.3246V59.3093H61.3308H62.9227C63.1555 59.3093 63.3681 59.3993 63.5224 59.5536L73.2538 69.2833C73.2545 69.284 73.2552 69.2847 73.256 69.2855C73.5828 69.6181 73.582 70.1552 73.2497 70.4874L70.4858 73.2508L70.4801 73.2565C70.162 73.578 69.6316 73.5862 69.2962 73.2508L59.5591 63.5155C59.4048 63.3612 59.3149 63.1487 59.3149 62.9162V61.3246ZM31.3131 45.3105C31.3131 53.0533 37.5818 59.3093 45.314 59.3093C53.0575 59.3093 59.3149 53.042 59.3149 45.3105C59.3149 37.5677 53.0462 31.3117 45.314 31.3117C37.5705 31.3117 31.3131 37.579 31.3131 45.3105Z" stroke="white" stroke-width="3"/>
</svg>
