<svg width="20" height="20" viewBox="0 0 20 20" fill="none" xmlns="http://www.w3.org/2000/svg">
<path d="M17.8555 2.14842C17.4389 1.72259 16.8222 1.56509 16.2472 1.73175L2.83887 5.60592C2.2322 5.77425 1.8022 6.25509 1.68637 6.86509C1.56803 7.48675 1.98137 8.27675 2.52137 8.60675L6.71387 11.1668C7.14387 11.4301 7.69887 11.3643 8.0547 11.0076L12.8555 6.20675C13.0972 5.95592 13.4972 5.95592 13.7389 6.20675C13.9805 6.44759 13.9805 6.84009 13.7389 7.09009L8.9297 11.8909C8.57303 12.2476 8.50637 12.8009 8.76887 13.2318L11.3305 17.4401C11.6305 17.9393 12.1472 18.2234 12.7139 18.2234C12.7805 18.2234 12.8555 18.2234 12.9222 18.2143C13.5722 18.1318 14.0889 17.6893 14.2805 17.0643L18.2555 3.75675C18.4305 3.19009 18.2722 2.57342 17.8555 2.14842Z" fill="white"/>
<path opacity="0.4" fill-rule="evenodd" clip-rule="evenodd" d="M2.5076 14.0062C2.3476 14.0062 2.1876 13.9453 2.06594 13.8228C1.82177 13.5787 1.82177 13.1837 2.06594 12.9395L3.20344 11.8012C3.4476 11.5578 3.84344 11.5578 4.0876 11.8012C4.33094 12.0453 4.33094 12.4412 4.0876 12.6853L2.94927 13.8228C2.8276 13.9453 2.6676 14.0062 2.5076 14.0062ZM5.64194 14.9998C5.48194 14.9998 5.32194 14.939 5.20027 14.8165C4.9561 14.5723 4.9561 14.1773 5.20027 13.9332L6.33777 12.7948C6.58194 12.5515 6.97777 12.5515 7.22194 12.7948C7.46527 13.039 7.46527 13.4348 7.22194 13.679L6.0836 14.8165C5.96194 14.939 5.80194 14.9998 5.64194 14.9998ZM5.85335 17.9732C5.97502 18.0957 6.13502 18.1565 6.29502 18.1565C6.45502 18.1565 6.61502 18.0957 6.73669 17.9732L7.87502 16.8357C8.11835 16.5915 8.11835 16.1957 7.87502 15.9515C7.63085 15.7082 7.23502 15.7082 6.99085 15.9515L5.85335 17.0898C5.60919 17.334 5.60919 17.729 5.85335 17.9732Z" fill="white"/>
</svg>
