<svg width="58" height="55" viewBox="0 0 58 55" fill="none" xmlns="http://www.w3.org/2000/svg">
<path d="M27.5015 25.1245C28.2278 27.3272 27.4863 29.5504 25.8457 30.0947C24.2051 30.6389 22.2851 29.2937 21.5588 27.091C20.8324 24.8883 21.574 22.6651 23.2146 22.1209C24.8552 21.5766 26.7752 22.9218 27.5015 25.1245ZM21.0966 30.5516C22.0565 32.2152 21.8229 34.1509 20.5785 34.8697C19.3341 35.5885 17.5462 34.8235 16.5913 33.1599C15.6364 31.4964 15.8599 29.5607 17.1043 28.8419C18.3487 28.123 20.1366 28.8881 21.0915 30.5516H21.0966ZM19.5118 40.954C22.1734 33.6991 26.9021 31.8558 28.9999 31.8558C31.0976 31.8558 35.8264 33.6991 38.4879 40.954C38.6708 41.4521 38.752 41.9861 38.752 42.5201V42.6022C38.752 43.9269 37.6905 45 36.38 45C35.7959 45 35.2169 44.9281 34.6531 44.7844L30.1833 43.6548C29.4062 43.4597 28.5935 43.4597 27.8164 43.6548L23.3467 44.7844C22.7829 44.9281 22.2038 45 21.6197 45C20.3093 45 19.2477 43.9269 19.2477 42.6022V42.5201C19.2477 41.9861 19.329 41.4521 19.5118 40.954ZM37.4213 34.8697C36.1768 34.1509 35.9432 32.2152 36.9032 30.5516C37.8632 28.8881 39.646 28.123 40.8904 28.8419C42.1348 29.5607 42.3685 31.4964 41.4085 33.1599C40.4485 34.8235 38.6657 35.5885 37.4213 34.8697ZM31.7477 30.0947C30.1071 29.5504 29.3656 27.3272 30.0919 25.1245C30.8182 22.9218 32.7382 21.5766 34.3788 22.1209C36.0194 22.6651 36.761 24.8883 36.0346 27.091C35.3083 29.2937 33.3883 30.6389 31.7477 30.0947Z" fill="white"/>
<path d="M30.8012 0.451172C29.691 -0.150391 28.3203 -0.150391 27.1988 0.451172L1.82383 14.2012C0.702344 14.8135 0 15.9521 0 17.1875V51.5625C0 53.4639 1.61992 55 3.625 55C5.63008 55 7.25 53.4639 7.25 51.5625V19.1855L29 7.40137L50.75 19.1855V51.5625C50.75 53.4639 52.3699 55 54.375 55C56.3801 55 58 53.4639 58 51.5625V17.1875C58 15.9521 57.2977 14.8135 56.1762 14.2012L30.8012 0.451172Z" fill="white"/>
</svg>
