<svg width="100" height="100" viewBox="0 0 100 100" fill="none" xmlns="http://www.w3.org/2000/svg">
<rect width="100" height="100" rx="8" fill="#13D3BD" fill-opacity="0.3"/>
<path d="M48.5015 47.1245C49.2278 49.3272 48.4863 51.5504 46.8457 52.0947C45.2051 52.6389 43.2851 51.2937 42.5588 49.091C41.8324 46.8883 42.574 44.6651 44.2146 44.1209C45.8552 43.5766 47.7752 44.9218 48.5015 47.1245ZM42.0966 52.5516C43.0565 54.2152 42.8229 56.1509 41.5785 56.8697C40.3341 57.5885 38.5462 56.8235 37.5913 55.1599C36.6364 53.4964 36.8599 51.5607 38.1043 50.8419C39.3487 50.123 41.1366 50.8881 42.0915 52.5516H42.0966ZM40.5118 62.954C43.1734 55.6991 47.9021 53.8558 49.9999 53.8558C52.0976 53.8558 56.8264 55.6991 59.4879 62.954C59.6708 63.4521 59.752 63.9861 59.752 64.5201V64.6022C59.752 65.9269 58.6905 67 57.38 67C56.7959 67 56.2169 66.9281 55.6531 66.7844L51.1833 65.6548C50.4062 65.4597 49.5935 65.4597 48.8164 65.6548L44.3467 66.7844C43.7829 66.9281 43.2038 67 42.6197 67C41.3093 67 40.2477 65.9269 40.2477 64.6022V64.5201C40.2477 63.9861 40.329 63.4521 40.5118 62.954ZM58.4213 56.8697C57.1768 56.1509 56.9432 54.2152 57.9032 52.5516C58.8632 50.8881 60.646 50.123 61.8904 50.8419C63.1348 51.5607 63.3685 53.4964 62.4085 55.1599C61.4485 56.8235 59.6657 57.5885 58.4213 56.8697ZM52.7477 52.0947C51.1071 51.5504 50.3656 49.3272 51.0919 47.1245C51.8182 44.9218 53.7382 43.5766 55.3788 44.1209C57.0194 44.6651 57.761 46.8883 57.0346 49.091C56.3083 51.2937 54.3883 52.6389 52.7477 52.0947Z" fill="white"/>
<path d="M51.8012 22.4512C50.691 21.8496 49.3203 21.8496 48.1988 22.4512L22.8238 36.2012C21.7023 36.8135 21 37.9521 21 39.1875V73.5625C21 75.4639 22.6199 77 24.625 77C26.6301 77 28.25 75.4639 28.25 73.5625V41.1855L50 29.4014L71.75 41.1855V73.5625C71.75 75.4639 73.3699 77 75.375 77C77.3801 77 79 75.4639 79 73.5625V39.1875C79 37.9521 78.2977 36.8135 77.1762 36.2012L51.8012 22.4512Z" fill="white"/>
</svg>
