<svg width="19" height="16" viewBox="0 0 19 16" fill="none" xmlns="http://www.w3.org/2000/svg">
<path d="M8.90634 2.27073H11.2813C11.4388 2.27073 11.5898 2.21092 11.7012 2.10446C11.8125 1.998 11.8751 1.85361 11.8751 1.70305V0.567682C11.8751 0.417123 11.8125 0.272731 11.7012 0.16627C11.5898 0.0598092 11.4388 0 11.2813 0H8.90634C8.74887 0 8.59785 0.0598092 8.4865 0.16627C8.37515 0.272731 8.31259 0.417123 8.31259 0.567682V1.70305C8.31259 1.85361 8.37515 1.998 8.4865 2.10446C8.59785 2.21092 8.74887 2.27073 8.90634 2.27073ZM8.90634 6.81219H13.6563C13.8138 6.81219 13.9648 6.75238 14.0761 6.64592C14.1875 6.53945 14.25 6.39506 14.25 6.2445V5.10914C14.25 4.95858 14.1875 4.81419 14.0761 4.70773C13.9648 4.60127 13.8138 4.54146 13.6563 4.54146H8.90634C8.74887 4.54146 8.59785 4.60127 8.4865 4.70773C8.37515 4.81419 8.31259 4.95858 8.31259 5.10914V6.2445C8.31259 6.39506 8.37515 6.53945 8.4865 6.64592C8.59785 6.75238 8.74887 6.81219 8.90634 6.81219ZM18.4063 13.6244H8.90634C8.74887 13.6244 8.59785 13.6842 8.4865 13.7906C8.37515 13.8971 8.31259 14.0415 8.31259 14.1921V15.3274C8.31259 15.478 8.37515 15.6224 8.4865 15.7288C8.59785 15.8353 8.74887 15.8951 8.90634 15.8951H18.4063C18.5637 15.8951 18.7147 15.8353 18.8261 15.7288C18.9374 15.6224 19 15.478 19 15.3274V14.1921C19 14.0415 18.9374 13.8971 18.8261 13.7906C18.7147 13.6842 18.5637 13.6244 18.4063 13.6244ZM8.90634 11.3536H16.0313C16.1887 11.3536 16.3398 11.2938 16.4511 11.1874C16.5625 11.0809 16.625 10.9365 16.625 10.786V9.6506C16.625 9.50004 16.5625 9.35565 16.4511 9.24918C16.3398 9.14272 16.1887 9.08291 16.0313 9.08291H8.90634C8.74887 9.08291 8.59785 9.14272 8.4865 9.24918C8.37515 9.35565 8.31259 9.50004 8.31259 9.6506V10.786C8.31259 10.9365 8.37515 11.0809 8.4865 11.1874C8.59785 11.2938 8.74887 11.3536 8.90634 11.3536ZM0.59391 4.54146H2.37514V15.3274C2.37514 15.478 2.4377 15.6224 2.54905 15.7288C2.6604 15.8353 2.81142 15.8951 2.96889 15.8951H4.15638C4.31385 15.8951 4.46487 15.8353 4.57622 15.7288C4.68757 15.6224 4.75012 15.478 4.75012 15.3274V4.54146H6.53136C7.05868 4.54146 7.32512 3.92978 6.95106 3.57249L3.98234 0.166402C3.871 0.0600212 3.72004 0.000263113 3.56263 0.000263113C3.40523 0.000263113 3.25427 0.0600212 3.14293 0.166402L0.174207 3.57249C-0.198368 3.92907 0.0662193 4.54146 0.59391 4.54146Z" fill="black"/>
</svg>
