<svg width="1184" height="199" viewBox="0 0 1184 199" fill="none" xmlns="http://www.w3.org/2000/svg">
<rect width="1184" height="199" fill="url(#paint0_linear)"/>
<g opacity="0.5" clip-path="url(#clip0)">
<path fill-rule="evenodd" clip-rule="evenodd" d="M1033.83 70.8892C1081.82 22.2702 1202.02 160.349 1334.4 191.03C1422.65 211.485 1468.32 205.243 1471.4 172.305L1425.72 444.354C1347.22 353.16 1290.71 308.571 1256.19 310.587C1221.67 312.603 1196.12 327.252 1179.55 354.533C1202.59 237.102 1187.11 193.426 1133.14 223.508C1052.18 268.63 985.844 119.509 1033.83 70.8892Z" fill="url(#paint1_linear)"/>
<path fill-rule="evenodd" clip-rule="evenodd" d="M829.119 -63.7888C787.205 -116.163 981.937 -26.0768 1114.32 4.60437C1202.57 25.0589 1256.26 28.0127 1275.37 13.4665C1143.65 81.2587 1060.56 109.773 1026.11 99.0064C991.657 88.2415 969.445 111.275 959.468 168.107C982.502 50.6752 967.031 7.00008 913.057 37.0814C832.095 82.2037 871.032 -11.4154 829.119 -63.7894L829.119 -63.7888Z" fill="url(#paint2_linear)"/>
<path fill-rule="evenodd" clip-rule="evenodd" d="M753.027 101.185C777.436 143.389 848.975 103.953 981.355 134.634C1069.61 155.088 1080.21 146.315 1013.17 108.313C953.303 212.218 913.294 252.46 893.144 229.037C872.995 205.614 855.565 212.265 840.855 248.988C854.323 164.322 834.068 137.03 780.094 167.111C699.133 212.234 728.619 58.9806 753.028 101.185L753.027 101.185Z" fill="url(#paint3_linear)"/>
<path fill-rule="evenodd" clip-rule="evenodd" d="M1295.68 437.222C1239.99 476.77 1145.58 319.915 1020.54 266.71C937.181 231.241 891.123 229.458 882.368 261.36L974.516 120.766C1005.2 182.205 1062.42 198.335 1146.18 169.156C1271.82 125.386 1147.96 212.924 1261.81 230.502C1375.65 248.079 1351.38 397.676 1295.68 437.222Z" fill="url(#paint4_linear)"/>
<path fill-rule="evenodd" clip-rule="evenodd" d="M974.812 179.415C974.771 179.256 974.986 179.012 974.916 178.861C975.346 178.794 975.403 178.679 975.816 178.147C976.014 178.529 975.187 178.774 974.812 179.415ZM974.178 179.418C973.667 179.764 973.261 181.016 972.44 180.925C973.208 180.109 973.518 179.785 973.468 179.339C973.753 179.237 973.984 179.277 974.448 178.705C974.384 178.968 974.149 179.288 974.253 179.497C974.051 179.662 974.085 179.506 974.178 179.418ZM979.371 173.965C978.519 174.008 980.159 173.015 980.622 172.325C980.592 172.508 980.323 172.766 980.519 172.876C980.116 173.161 979.216 173.547 979.371 173.965ZM1051 139.48C1048.31 139.157 1045.47 138.054 1042.69 137.921C1043.28 137.778 1044.76 137.955 1046.4 138.314C1048.03 138.668 1049.8 139.207 1051 139.48ZM949.173 200.996C948.841 201.088 948.526 201.165 948.573 200.955C946.976 201.376 946.589 201.907 945.035 202.215C945.172 202.449 945.409 202.627 946.001 202.592C946.472 202.205 947.258 201.539 948.205 201.742C948.187 201.532 948.296 201.352 948.635 201.166C948.669 201.271 949.148 201.149 949.173 200.996ZM944.747 202.266C943.478 202.375 944.034 203.109 944.813 202.698C944.868 202.828 944.941 202.94 945.436 202.809C945.454 202.48 944.72 202.6 944.747 202.266ZM956.857 196.94C957.375 196.824 958.726 195.847 958.581 195.477C958.398 195.708 957.957 195.983 957.571 196.248C957.174 196.502 956.827 196.74 956.857 196.94ZM959.409 194.935C960.323 194.3 962.089 192.848 961.507 192.808C960.887 193.511 959.692 194.334 959.409 194.935ZM956.45 195.783C956.34 196.137 955.975 196.516 955.496 196.898C955.257 197.089 954.988 197.281 954.71 197.472C954.441 197.662 954.077 197.855 953.766 198.04C953.125 198.426 952.497 198.738 952.056 199.035C951.618 199.339 951.354 199.6 951.437 199.844C952.525 199.176 952.334 199.286 953.475 198.943C953.011 198.417 954.312 198.361 954.463 197.821C954.785 197.654 954.762 197.874 955.018 197.76C955.639 197.207 955.417 197.042 956.631 196.565C956.616 196.262 956.978 196.033 957.413 195.757C957.844 195.475 958.364 195.164 958.696 194.748L958.576 194.566C958.447 194.642 958.325 194.71 958.312 194.607C957.794 195.058 957.794 195.439 957.104 195.907C956.987 195.725 956.449 196.13 956.45 195.783ZM965.446 188.5C965.241 188.238 964.79 188.491 964.483 188.445C964.18 188.693 963.884 188.95 963.568 189.188C963.736 189.487 963.115 189.971 962.713 190.404C962.498 190.248 962.071 190.33 962.312 189.885C962.123 190.468 961.735 191.257 962.347 191.103C961.836 191.212 961.988 191.533 961.711 191.855C962.025 191.772 963.993 190.106 962.536 190.957C963.964 190.118 964.267 189.31 965.446 188.5ZM1042.62 192.957C1042.53 193.405 1044.39 192.522 1044.44 192.335C1043.58 192.615 1043.74 192.546 1042.62 192.957L1042.62 192.957ZM991.822 154.093L990.406 155.014C990.568 155 991.401 154.526 992.199 154.003C992.995 153.475 993.788 152.945 993.814 152.723C992.746 153.359 992.202 153.728 991.822 154.093ZM1008.59 143.549C1010.16 143.399 1013.8 141.878 1015.35 141.221C1014.2 141.527 1013.07 141.895 1011.97 142.324L1010.35 142.918C1009.79 143.128 1009.22 143.341 1008.59 143.549ZM1023.72 139.036C1023.16 139.119 1021.1 139.355 1020.37 139.946C1020.65 139.849 1021.18 139.704 1021.77 139.554L1023.54 139.166C1024.59 138.937 1025.14 138.81 1023.72 139.036ZM1012.21 200.102C1011.09 199.898 1009.15 199.783 1007.12 199.376C1006.11 199.208 1005.09 198.921 1004.15 198.636C1003.3 198.359 1002.48 198.012 1001.68 197.598C1002.63 197.91 1003.46 198.224 1004.26 198.434C1005.06 198.632 1005.81 198.865 1006.58 198.992C1007.35 199.124 1008.12 199.303 1008.96 199.382C1009.8 199.486 1010.71 199.59 1011.73 199.631C1011.72 199.381 1010.67 199.525 1010.23 199.401C1013.36 199.675 1016.18 199.576 1018.78 199.337C1021.38 199.092 1023.76 198.702 1026.05 198.242C1030.62 197.285 1034.77 196.09 1039.38 194.5C1040.07 194.18 1039.68 194.01 1039.91 193.853C1041.48 193.295 1043.04 192.689 1044.58 192.037C1044.55 192.659 1045.45 192.26 1045.99 192.251C1046.63 192.046 1045.62 191.858 1046.26 191.649C1046.12 191.45 1045.6 191.692 1045.06 191.944C1048.01 190.515 1051.71 188.6 1055.29 185.708C1057.06 184.28 1058.84 182.564 1060.36 180.614C1061.88 178.672 1063.2 176.515 1064.17 174.196C1064.04 173.948 1064.82 172.788 1064.36 172.876C1065.38 171.224 1065.85 169.357 1066.01 167.446C1066.17 165.523 1066.04 163.561 1065.82 161.457C1065.57 162.097 1065.69 160.453 1065.09 159.685C1064.89 159.031 1065.07 159.348 1065.22 159.368C1064.12 155.629 1061.88 152.332 1059.16 149.813C1056.44 147.275 1053.25 145.44 1049.98 144.287C1046.73 143.146 1043.5 142.633 1040.54 142.501C1037.58 142.363 1034.88 142.572 1032.53 142.907C1030.62 142.852 1028.53 143.098 1026.03 143.843C1021.92 144.501 1017.33 145.51 1013.99 147.463C1013.85 147.312 1014.1 147.209 1014.36 147.108C1012.52 147.554 1009.47 148.657 1007.42 149.758C1006.95 149.965 1007.81 149.9 1007.63 150.262C1007.21 150.491 1006.18 150.731 1006.19 150.995C1005.08 151.084 1007.39 150.444 1006.86 150.221C1005.35 150.598 1003.98 151.523 1002.79 152.439C999.562 153.791 996.277 155.804 993.382 157.946C990.475 160.081 987.965 162.342 985.989 164.029C985.859 164.51 986.908 163.563 986.376 164.139C986.047 164.35 986.096 164.475 986.161 164.595C985.47 165.079 986.025 164.279 985.464 164.47C982.361 167.557 980.896 168.905 979.093 171.364C979.191 170.705 978.801 171.632 978.446 171.676C978.007 172.507 977.923 173.223 976.835 174.276C976.547 174.048 977.72 173.112 977.936 172.462C975.662 174.673 973.631 176.587 971.871 179.657C972.354 179.836 972.771 178.579 973.09 178.944C972.216 180.345 971.434 181.32 970.143 182.181C970.104 182.056 970.426 181.814 970.33 181.706C970.418 181.899 968.556 183.561 968.974 183.989C967.942 184.513 967.354 185.268 967.597 185.947C967.028 186.253 966.315 186.899 965.902 186.844C965.761 187.089 966.116 187.009 965.571 187.544C966.608 187.343 966.991 186.758 968.375 185.412C968.568 184.967 968.14 185.356 968.012 185.004C968.827 184.398 968.421 185.173 969.242 184.632C970.506 183.325 970.302 183.041 971.675 181.794C971.859 182.699 970.128 183.957 969.216 184.952C969.088 185.349 968.301 186.457 968.352 186.45C968.244 186.852 967.902 186.69 967.958 186.358C966.392 187.927 966.67 188.331 966.695 188.885C966.088 189.236 965.874 189.135 965.908 188.686C965.583 189.05 965.178 189.432 964.761 189.818C964.339 190.2 963.887 190.575 963.497 190.951C962.719 191.703 962.139 192.427 962.292 193.053C962.047 193.141 961.938 192.997 961.565 193.305C961.537 193.984 959.917 194.367 959.921 195.254C958.858 195.386 957.751 196.783 956.864 197.443L956.584 196.972C956.016 197.37 955.463 197.788 954.926 198.228C954.337 198.642 953.758 199.088 953.108 199.477C953.623 199.535 954.191 199.142 954.803 198.691C955.393 198.235 955.897 197.71 956.534 197.382C955.221 198.701 953.373 200.028 951.486 201.048C949.567 202.087 947.484 202.972 944.961 203.671L947.103 202.835C947.772 202.539 948.449 202.296 949.088 201.986C949.732 201.684 950.386 201.4 951.026 201.042C951.345 200.867 951.67 200.69 952.003 200.51L952.986 199.891C952.265 199.914 951.775 200.687 951.113 200.553C950.439 201.089 949.182 201.785 947.869 202.276C947.217 202.529 946.561 202.741 945.97 202.863C945.383 202.994 944.896 203.085 944.557 203.061C943.653 203.795 940.819 204.199 937.623 204.186C936.394 203.796 938.716 204.085 938.75 203.889C938.682 203.521 937.022 203.996 937.365 203.487C939.011 203.687 938.935 203.543 939.438 203.934C939.482 203.45 940.376 203.893 940.47 203.428C941.181 203.403 941.096 203.591 941.131 203.767C941.353 203.455 941.464 203.096 942.715 203.261C942.648 202.947 941.912 202.931 941.163 203.022C940.4 203.092 939.58 203.226 939.472 203.389C939.06 203.348 938.6 203.268 938.129 203.192C937.656 203.111 937.187 203.067 936.693 202.976C935.695 202.776 934.714 202.642 933.765 202.433C932.964 202.113 933.087 201.875 933.244 201.647C933.16 201.69 932.944 201.647 932.679 201.488C932.385 201.31 932.107 201.106 931.849 200.878C931.329 200.415 931.014 199.953 931.471 200.013C930.992 199.618 930.632 199.238 930.31 198.956C929.997 198.655 929.71 198.441 929.48 198.175C929.023 197.655 928.548 197.197 928.062 196.322C929.013 197.008 927.93 196.014 928.959 196.528C928.942 196.125 928.356 195.182 928.096 194.511C928.353 194.047 929.105 195.157 929.505 195.151C928.687 194.015 930.156 195.227 928.829 193.651C929.338 193.911 930.008 194.577 929.294 193.364C929.512 192.967 930.157 194.17 930.437 194.02C930.715 193.751 930.353 193.073 930.66 192.836C930.819 192.607 931.137 193.093 931.266 192.743L931.966 193.275C932.2 193.449 932.482 193.58 932.733 193.731C932.999 193.867 933.228 194.04 933.515 194.14L934.341 194.465C935.462 194.836 936.614 195.057 937.804 195.049C938.385 195.089 938.99 195.008 939.576 194.979C939.872 194.949 940.173 194.891 940.47 194.851C940.769 194.816 941.067 194.762 941.36 194.69C942.547 194.475 943.733 194.068 944.901 193.669C946.734 192.982 948.477 192.077 950.093 190.973L950.695 190.558L951.321 190.083L952.576 189.136C953.411 188.499 954.213 187.793 955.035 187.13C958.268 184.35 961.331 181.214 964.401 177.947C968.119 174.014 972.382 169.212 976.616 164.997C980.228 161.389 983.684 158.2 987.266 155.452C990.731 152.77 994.388 150.346 998.208 148.198C1002.03 146.061 1006.11 144.09 1010.8 142.363C1015.5 140.633 1020.79 139.086 1027.07 138.033C1032.09 137.202 1038.01 136.548 1044.36 137.4C1045.94 137.61 1047.54 137.924 1049.13 138.357C1049.92 138.558 1050.71 138.822 1051.49 139.079C1052.29 139.375 1053.09 139.666 1053.86 140.018C1055.4 140.687 1056.87 141.486 1058.27 142.406C1059.65 143.297 1060.95 144.308 1062.15 145.427C1063.25 146.434 1063.69 146.991 1063.8 147.118C1063.9 147.257 1063.64 147.02 1063.22 146.623C1062.81 146.215 1062.2 145.716 1061.66 145.235L1060.36 144.201C1057.77 142.277 1055.1 140.809 1052.31 139.76C1049.55 138.706 1046.85 138.076 1044.16 137.702C1038.79 136.966 1033.6 137.279 1028.36 138.184C1029.6 138.155 1032.02 137.89 1033.66 137.679C1031.36 137.986 1029.06 138.365 1026.78 138.816C1025.62 139.043 1024.44 139.267 1023.26 139.542C1022.08 139.788 1020.9 140.085 1019.71 140.382C1014.98 141.563 1010.31 143.147 1006.22 144.932C1006.42 144.521 1007.02 144.499 1007.97 144.009C1004.69 144.951 1002.46 146.47 998.813 148.189C999.4 148.149 999.988 147.848 1000.69 147.451C1001.4 147.053 1002.22 146.544 1003.29 146.178C1003.65 146.03 1004.12 145.752 1004.23 145.882L1003.33 146.278C999.693 148.205 996.048 150.292 992.652 152.571C989.261 154.841 986.103 157.32 983.49 159.864C985.531 158.142 987.896 156.43 990.355 154.688C992.825 152.946 995.448 151.233 998.081 149.432C997.993 149.588 997.912 149.741 998.182 149.626C1003.02 146.884 1007.9 144.795 1012.58 143.091C1006.36 145.599 1000.05 148.536 994.021 152.599C997.164 151.011 1000.3 148.79 1004.49 147.084C1004.98 146.922 1004.85 146.755 1004.8 146.588C1007.83 145.619 1010.79 144.367 1013.7 143.416C1016.43 142.545 1019.2 141.788 1021.99 141.148C1024.77 140.552 1027.51 140.035 1030.33 139.684C1035.95 138.995 1041.94 138.853 1048.11 140.428C1049.64 140.81 1051.18 141.333 1052.72 141.981C1054.26 142.629 1055.75 143.41 1057.16 144.314C1060.01 146.119 1062.66 148.492 1064.84 151.497C1065.95 153.051 1066.87 154.733 1067.58 156.507C1068.31 158.325 1068.84 160.297 1069.05 162.296C1069.27 164.29 1069.27 166.324 1068.98 168.298C1068.7 170.267 1068.21 172.202 1067.53 174.07C1067.05 175.292 1066.53 176.422 1065.71 177.993C1065.54 178.303 1065.37 178.606 1065.18 178.901C1064.97 179.193 1064.75 179.479 1064.54 179.767C1064.11 180.347 1063.64 180.886 1063.23 181.451C1062.18 182.868 1061.1 184.379 1059.86 185.635C1058.65 186.881 1057.4 187.881 1056.13 188.375C1055.4 189.032 1053.48 190.189 1054.33 189.523C1055.99 188.211 1057.58 186.931 1059.03 185.611C1060.5 184.255 1061.78 182.864 1062.8 181.481C1064.92 178.564 1066.59 175.32 1067.6 171.789C1068.11 170.03 1068.41 168.184 1068.54 166.319C1068.67 164.451 1068.52 162.542 1068.19 160.682C1067.49 156.932 1065.79 153.501 1063.61 150.777C1062.54 149.439 1061.35 148.207 1060.05 147.097C1058.8 146.046 1057.46 145.102 1056.05 144.272C1058.33 145.819 1060.52 147.608 1062.42 149.781C1063.39 150.845 1064.24 152.044 1065.04 153.276C1065.8 154.541 1066.49 155.862 1067.02 157.27C1068.11 160.072 1068.55 163.103 1068.45 165.935C1068.36 168.631 1067.81 171.292 1066.81 173.8C1065.96 175.99 1064.76 178.285 1063.32 180.339C1061.9 182.394 1060.23 184.218 1058.67 185.556C1055.15 188.571 1051.26 190.877 1047.33 192.726C1043.39 194.577 1039.42 195.997 1035.5 197.248C1031.54 198.506 1027.43 199.598 1023.13 200.223C1018.85 200.85 1014.35 200.992 1009.88 200.24C1010.92 200.085 1011.72 200.145 1012.21 200.102ZM965.313 189.461C965.614 189.167 966.03 189.664 965.405 189.953C965.384 189.855 965.521 189.716 965.451 189.631C964.483 190.16 965.484 190.183 964.726 190.642C964.929 189.929 964.238 191.039 963.514 191.445C964.061 190.655 964.801 190.044 965.313 189.461L965.313 189.461ZM975.044 177.675C975.434 177.547 975.663 176.941 976.359 176.406C976.13 177.196 975.406 177.743 975.335 178.306C974.752 178.656 975.008 177.872 975.044 177.675ZM978.073 174.906C978.198 174.758 978.257 174.788 978.312 174.827C978.459 174.456 978.16 173.954 978.829 173.725C979.009 173.94 978.207 174.481 978.716 174.591C978.413 174.934 978.188 175.068 978.073 174.906L978.073 174.906ZM977.494 175.615C977.047 175.84 977.781 174.425 978.173 174.354C978.393 174.628 977.61 175.231 977.494 175.615ZM979.829 172.474L980.054 172.713C979.746 172.971 979.307 173.573 979.246 173.178C979.551 172.908 979.501 172.752 979.829 172.474ZM983.74 168.716C983.94 168.574 983.999 168.777 984.221 168.581C984.169 168.937 983.259 169.534 983.268 169.871C982.652 170.086 983.387 169.056 983.886 168.88L983.74 168.717L983.74 168.716ZM982.714 169.933C982.363 170.14 981.097 171.338 981.281 171.706C980.854 171.761 980.795 171.875 980.383 172.4C980.058 172.297 980.558 171.931 980.411 171.77C981.478 171.229 982.022 169.645 982.714 169.933ZM994.565 159.614C995.234 159.075 995.085 159.893 995.358 160.012C994.791 160.365 994.417 159.884 994.565 159.614ZM1001.64 154.731C1001.43 155.033 1000.96 155.342 1000.34 155.655C1000.34 155.349 1001.35 154.751 1001.64 154.731ZM987.43 163.995C987.392 164.138 987.357 164.281 987.46 164.392C986.821 164.262 985.549 166.837 985.333 165.729C985.802 165.686 986.121 165.283 986.425 164.87C986.735 164.466 987.033 164.058 987.43 163.995ZM1004.03 153.423C1003.67 153.858 1002.56 154.414 1001.84 155.119C1002.08 154.817 1002.41 154.512 1002.4 154.215C1003.24 153.915 1003.48 153.423 1004.03 153.423ZM989.26 162.283C989.441 162.219 989.623 162.151 989.87 161.961C990.181 162.102 989.642 162.407 989.771 162.583C989.398 162.737 989.071 162.628 989.26 162.283ZM988.07 163.342C987.896 163.182 988.663 162.791 988.897 162.554C988.944 162.778 988.674 163.065 988.87 163.262C988.261 163.655 988.313 163.242 988.07 163.342ZM1017.67 147.718C1017.47 148.19 1015.79 148.411 1015.14 148.81C1015.51 148.124 1016.48 148.27 1017.67 147.718ZM1018.19 146.111C1018.04 146.25 1018.01 146.412 1018.08 146.592C1017.63 146.703 1017.18 146.835 1016.74 146.966C1016.78 146.397 1017.58 146.565 1018.19 146.111ZM1029.12 197.223C1031.15 196.313 1034.97 195.728 1039.24 194.088C1037.3 195.043 1032.37 196.386 1029.12 197.223ZM1039.38 196.7C1040.59 196.108 1041.36 195.862 1041.45 195.89C1041.54 195.923 1040.93 196.241 1039.38 196.7ZM1047.17 193.636C1048.2 192.987 1048.97 192.624 1049.1 192.619C1049.24 192.606 1048.73 192.987 1047.17 193.636ZM1023.19 140.249C1023.27 139.749 1025.36 139.729 1026.29 139.484C1026.87 139.509 1026.2 139.612 1025.33 139.747C1024.46 139.877 1023.4 140.1 1023.19 140.249ZM1037.85 137.594C1037.57 137.742 1036.86 137.724 1036.13 137.697C1035.42 137.691 1034.7 137.679 1034.45 137.858C1034.12 137.697 1034.88 137.596 1035.78 137.562C1036.67 137.528 1037.7 137.563 1037.85 137.594ZM1039.46 137.429C1039.69 137.421 1039.71 137.486 1039.72 137.553C1043.69 137.625 1039.71 138.12 1039.46 137.429ZM1062.98 146.812C1061.82 145.887 1061.06 145.218 1060.98 145.086C1060.9 144.955 1061.55 145.319 1062.98 146.812ZM1058.94 143.562C1058.5 143.263 1057.92 142.952 1057.29 142.596C1056.65 142.271 1055.97 141.904 1055.28 141.585C1053.91 140.912 1052.56 140.336 1051.83 139.787C1053.09 140.26 1054.51 140.93 1055.8 141.598C1057.08 142.296 1058.22 143.019 1058.94 143.562ZM1064.19 183.268C1063.49 184.223 1063.69 184.021 1064.18 183.427C1064.68 182.837 1065.42 181.802 1065.84 181.154C1067.02 179.454 1068.09 177.244 1068.14 176.58C1067.9 177.06 1067.64 177.622 1067.34 178.206C1067.02 178.776 1066.7 179.398 1066.34 179.996C1065.67 181.116 1064.95 182.207 1064.19 183.268Z" fill="url(#paint5_linear)"/>
<path fill-rule="evenodd" clip-rule="evenodd" d="M833.998 -40.7197L834.675 -40.4079L834.859 -39.7476L834.643 -39.1191L833.998 -38.8492L833.39 -39.1559L832.989 -39.7483L833.292 -40.4347L833.998 -40.7197ZM1111.49 296.593L1112.62 297.112L1112.92 298.213L1112.56 299.26L1111.49 299.71L1110.48 299.199L1109.81 298.213L1110.31 297.067L1111.49 296.593Z" fill="white"/>
<path fill-rule="evenodd" clip-rule="evenodd" d="M1105.02 113.908L1106.82 114.74L1107.31 116.5L1106.74 118.176L1105.02 118.896L1103.39 118.079L1102.33 116.5L1103.13 114.667L1105.02 113.908Z" fill="white" fill-opacity="0.64"/>
<path fill-rule="evenodd" clip-rule="evenodd" d="M1125.83 118.896L1126.96 119.415L1127.26 120.516L1126.9 121.563L1125.83 122.013L1124.82 121.502L1124.15 120.516L1124.65 119.37L1125.83 118.896ZM1108.37 130.119L1109.5 130.638L1109.81 131.739L1109.45 132.786L1108.37 133.236L1107.36 132.725L1106.69 131.739L1107.19 130.593L1108.37 130.119ZM1098.35 297.216L1099.02 297.528L1099.21 298.188L1098.99 298.817L1098.35 299.087L1097.74 298.78L1097.34 298.188L1097.64 297.501L1098.35 297.216Z" fill="white"/>
</g>
<defs>
<linearGradient id="paint0_linear" x1="435.5" y1="87.7941" x2="573.101" y2="718.962" gradientUnits="userSpaceOnUse">
<stop stop-color="#3C5A7D"/>
<stop offset="1" stop-color="#61ECFC"/>
</linearGradient>
<linearGradient id="paint1_linear" x1="1345.44" y1="274.352" x2="1017.83" y2="233.704" gradientUnits="userSpaceOnUse">
<stop stop-color="#61EFFD" stop-opacity="0"/>
<stop offset="0.51929" stop-color="#61EFFD"/>
<stop offset="1" stop-color="#535FD7"/>
</linearGradient>
<linearGradient id="paint2_linear" x1="1152.95" y1="78.6615" x2="824.834" y2="34.9803" gradientUnits="userSpaceOnUse">
<stop stop-color="#61EFFD" stop-opacity="0"/>
<stop offset="0.51929" stop-color="#61EFFD"/>
<stop offset="1" stop-color="#535FD7"/>
</linearGradient>
<linearGradient id="paint3_linear" x1="968.854" y1="188.196" x2="733.826" y2="156.515" gradientUnits="userSpaceOnUse">
<stop stop-color="#61EFFD" stop-opacity="0"/>
<stop offset="0.51929" stop-color="#61EFFD"/>
<stop offset="1" stop-color="#535FD7" stop-opacity="0.24"/>
</linearGradient>
<linearGradient id="paint4_linear" x1="1015.64" y1="225.003" x2="1331.63" y2="337.812" gradientUnits="userSpaceOnUse">
<stop stop-color="#61EFFD" stop-opacity="0"/>
<stop offset="1" stop-color="#61EFFD"/>
</linearGradient>
<linearGradient id="paint5_linear" x1="933.557" y1="193.671" x2="985.236" y2="226.473" gradientUnits="userSpaceOnUse">
<stop stop-color="#2FEAFC"/>
<stop offset="1" stop-color="white" stop-opacity="0.48"/>
</linearGradient>
<clipPath id="clip0">
<rect width="457" height="467" fill="white" transform="translate(727 -80)"/>
</clipPath>
</defs>
</svg>
